<?xml version="1.0" standalone="no"?>
<!DOCTYPE svg PUBLIC "-//W3C//DTD SVG 20010904//EN"
 "http://www.w3.org/TR/2001/REC-SVG-20010904/DTD/svg10.dtd">
<svg version="1.0" xmlns="http://www.w3.org/2000/svg"
 width="512.000000pt" height="512.000000pt" viewBox="0 0 512.000000 512.000000"
 preserveAspectRatio="xMidYMid meet">

<g transform="translate(0.000000,512.000000) scale(0.100000,-0.100000)"
fill="#000000" stroke="none">
<path d="M504 5016 c-28 -13 -65 -41 -82 -62 -64 -78 -62 -28 -62 -1230 l0
-1091 -41 -7 c-94 -15 -184 -90 -219 -183 -20 -54 -20 -65 -18 -1101 3 -1042
3 -1047 24 -1092 27 -57 87 -117 144 -144 l45 -21 2348 -3 2348 -2 24 24 25
25 0 805 c0 569 -3 812 -11 829 -18 40 -49 47 -209 47 l-150 0 0 328 c0 180
-5 356 -11 392 -20 127 -107 258 -219 330 l-49 32 64 60 c108 100 172 214 198
350 l10 57 73 35 c125 62 210 177 234 317 7 37 10 137 8 232 -4 219 3 211
-183 215 l-134 4 -12 56 c-46 226 -238 425 -470 488 -85 23 -243 23 -328 0
-233 -63 -421 -257 -471 -487 l-13 -57 -79 -4 c-94 -6 -122 -25 -122 -84 0
-56 29 -74 119 -74 l73 0 4 -342 c4 -340 4 -344 31 -423 37 -112 90 -196 174
-275 l72 -69 -48 -31 c-66 -42 -143 -126 -176 -190 -48 -96 -55 -155 -55 -522
l0 -338 -165 0 -165 0 -2 1533 -3 1534 -30 49 c-19 30 -49 60 -79 79 l-49 30
-1156 2 -1156 3 -51 -24z m2340 -157 l26 -20 0 -800 0 -799 -1175 0 -1175 0 2
796 3 796 28 24 28 24 1118 0 c1116 0 1118 0 1145 -21z m1268 -303 c152 -33
279 -132 342 -267 19 -41 37 -86 40 -101 l6 -28 -485 0 c-267 0 -485 2 -485 5
0 3 9 33 20 65 55 163 187 283 357 324 75 19 123 19 205 2z m396 -836 c2 -152
-2 -310 -8 -354 -25 -193 -164 -356 -349 -410 -77 -23 -204 -21 -284 4 -124
38 -232 131 -294 253 -45 90 -53 157 -53 478 0 163 3 299 7 302 3 4 225 6 492
5 l486 -3 3 -275z m307 140 c-1 -158 -11 -195 -68 -257 -80 -87 -77 -94 -77
167 l0 231 73 -3 72 -3 0 -135z m-1945 -815 l0 -35 -1175 0 -1175 0 0 35 0 35
1175 0 1175 0 0 -35z m0 -715 l0 -520 -149 0 c-144 0 -151 -1 -178 -24 l-28
-24 -3 -761 -2 -761 -65 0 -64 0 15 35 c12 29 14 189 14 1078 0 1158 4 1094
-67 1176 -19 23 -58 54 -87 69 l-51 27 -842 3 -843 2 0 104 c0 56 3 106 7 109
3 4 532 7 1175 7 l1168 0 0 -520z m1422 426 c26 -10 68 -36 94 -59 48 -42 104
-120 104 -144 0 -10 -91 -13 -475 -13 -322 0 -475 3 -475 10 0 47 96 157 166
190 68 34 119 39 334 36 164 -2 214 -6 252 -20z m-3522 -416 l0 -130 -265 0
-265 0 0 80 c0 93 15 131 63 160 29 18 51 20 250 20 l217 0 0 -130z m1446 88
c33 -37 34 -39 34 -128 l0 -90 -657 2 -658 3 -3 128 -3 127 626 -2 627 -3 34
-37z m2294 -118 l0 -70 -495 0 -495 0 0 70 0 70 495 0 495 0 0 -70z m0 -365
l0 -135 -495 0 -495 0 0 135 0 135 495 0 495 0 0 -135z m-2260 -752 c0 -666
-3 -864 -13 -883 -7 -13 -28 -35 -46 -47 l-34 -23 -906 0 c-843 0 -908 1 -941
18 -74 36 -70 -14 -70 940 l0 852 1005 0 1005 0 0 -857z m2630 -248 l0 -705
-1105 0 -1105 0 0 698 c0 384 3 702 7 705 3 4 501 7 1105 7 l1098 0 0 -705z"/>
<path d="M755 4208 c-42 -24 -44 -35 -45 -245 0 -198 1 -202 23 -229 17 -20
33 -27 57 -27 24 0 40 7 57 27 22 26 23 32 23 227 l0 201 -29 29 c-31 31 -54
35 -86 17z"/>
<path d="M1075 1804 c-106 -26 -234 -95 -317 -173 -424 -396 -250 -1086 312
-1238 77 -21 271 -23 340 -4 145 39 252 101 350 200 136 139 199 283 207 476
7 171 -33 313 -127 450 -95 138 -261 250 -432 290 -79 19 -253 18 -333 -1z
m310 -159 c200 -51 357 -209 410 -410 8 -33 15 -78 15 -102 0 -40 -2 -43 -37
-53 -66 -19 -188 -24 -255 -10 -40 9 -122 44 -223 96 -203 104 -270 125 -395
125 -52 1 -115 -4 -140 -10 -24 -5 -46 -8 -49 -5 -2 2 13 38 34 79 68 135 209
250 356 289 72 19 210 20 284 1z m-370 -527 c22 -6 114 -48 205 -94 105 -54
194 -91 244 -104 83 -21 198 -25 274 -11 40 8 42 7 36 -13 -30 -101 -166 -251
-276 -304 -167 -81 -329 -81 -498 0 -155 74 -270 221 -306 387 -24 116 -24
116 54 135 109 26 176 27 267 4z"/>
<path d="M2843 1486 l-28 -24 0 -517 0 -517 28 -24 28 -24 690 0 691 0 29 29
30 30 -3 511 -3 512 -28 24 -28 24 -689 0 -689 0 -28 -24z m1307 -541 l0 -405
-590 0 -590 0 0 398 c0 219 3 402 7 405 3 4 269 7 590 7 l583 0 0 -405z"/>
<path d="M3348 1162 c-111 -109 -129 -132 -130 -160 -1 -43 35 -82 76 -82 27
0 51 19 160 129 112 113 129 134 129 162 0 23 -8 39 -27 56 -51 43 -68 35
-208 -105z"/>
<path d="M3508 1003 c-235 -234 -248 -249 -248 -285 0 -28 6 -42 26 -57 55
-43 60 -40 328 228 223 223 249 253 249 282 0 23 -8 39 -27 56 -55 47 -60 43
-328 -224z"/>
<path d="M3668 842 c-111 -109 -129 -132 -130 -160 -1 -43 35 -82 76 -82 27 0
51 19 160 129 112 113 129 134 129 162 0 23 -8 39 -27 56 -51 43 -68 35 -208
-105z"/>
<path d="M4524 1446 c-62 -20 -110 -62 -140 -122 -52 -107 -14 -234 91 -299
42 -26 58 -30 119 -30 79 1 114 15 164 66 47 48 66 96 66 164 0 73 -26 128
-84 178 -62 53 -137 68 -216 43z m99 -155 c13 -5 29 -22 36 -38 21 -51 -13
-103 -69 -103 -29 0 -70 44 -70 75 0 28 40 75 64 75 8 0 26 -4 39 -9z"/>
<path d="M4522 886 c-63 -21 -107 -59 -137 -121 -90 -184 88 -385 283 -321
100 34 176 155 157 253 -26 143 -170 232 -303 189z m101 -155 c13 -5 29 -22
36 -38 21 -51 -13 -103 -69 -103 -29 0 -70 44 -70 75 0 28 40 75 64 75 8 0 26
-4 39 -9z"/>
</g>
</svg>
