<?xml version="1.0" standalone="no"?>
<!DOCTYPE svg PUBLIC "-//W3C//DTD SVG 20010904//EN"
 "http://www.w3.org/TR/2001/REC-SVG-20010904/DTD/svg10.dtd">
<svg version="1.0" xmlns="http://www.w3.org/2000/svg"
 width="512.000000pt" height="512.000000pt" viewBox="0 0 512.000000 512.000000"
 preserveAspectRatio="xMidYMid meet">
<metadata>
Created by potrace 1.16, written by Peter Selinger 2001-2019
</metadata>
<g transform="translate(0.000000,512.000000) scale(0.100000,-0.100000)"
fill="#000000" stroke="none">
<path d="M3832 4766 c-36 -33 -37 -37 -39 -106 l-2 -73 -41 -18 -42 -19 -41
46 c-34 36 -50 47 -84 51 -70 9 -92 -3 -203 -113 l-106 -104 -984 -2 -985 -3
-41 -22 c-67 -36 -101 -70 -131 -131 l-28 -57 -3 -366 -3 -365 -65 -28 c-204
-89 -350 -249 -426 -466 l-33 -95 0 -300 c0 -283 1 -305 23 -380 51 -176 150
-338 281 -456 l71 -64 0 -86 0 -87 -198 -4 c-171 -4 -205 -8 -262 -28 -80 -27
-121 -48 -137 -69 -18 -24 -15 -76 5 -102 26 -31 67 -28 172 10 83 30 89 31
262 31 l178 0 25 -51 c35 -68 104 -135 173 -167 51 -24 69 -27 167 -27 102 0
114 2 168 30 67 33 159 126 178 180 l13 35 171 0 c191 0 250 -10 349 -63 91
-47 195 -155 239 -247 48 -103 57 -155 57 -346 l0 -166 -28 -28 c-19 -19 -43
-30 -73 -35 -24 -3 -525 -5 -1114 -3 -1147 3 -1093 1 -1125 52 -18 28 -25 208
-12 321 13 111 32 171 83 256 44 74 47 96 18 133 -16 20 -29 26 -60 26 -49 0
-72 -22 -123 -120 -63 -119 -76 -193 -76 -429 0 -178 3 -211 19 -246 23 -52
74 -103 126 -126 38 -18 121 -19 1925 -19 1874 0 1885 1 1930 21 60 27 107 74
136 134 l24 50 0 441 c0 417 -1 443 -19 465 -25 31 -83 32 -114 1 -22 -22 -22
-24 -27 -457 l-5 -435 -26 -25 c-38 -39 -81 -44 -321 -45 l-218 0 0 408 1 407
61 35 c34 20 89 65 125 104 218 236 217 597 -2 834 -141 152 -286 187 -340 82
-12 -23 -15 -71 -15 -225 l0 -195 -95 0 -95 0 0 198 c0 211 -4 229 -51 265
-64 47 -173 5 -290 -114 -201 -202 -233 -519 -78 -764 46 -73 137 -161 204
-196 l45 -24 0 -407 0 -408 -125 0 -125 0 10 26 c16 41 12 388 -5 469 -48 230
-238 441 -470 521 -74 26 -93 28 -272 32 l-193 4 1 91 1 92 61 50 c158 130
279 361 307 589 18 137 8 508 -15 596 -90 337 -382 569 -723 574 l-93 1 3 335
c3 313 4 337 23 364 39 58 4 56 999 56 l914 0 7 -27 c3 -15 25 -44 47 -65 l41
-38 -17 -44 -17 -44 -57 5 c-48 4 -62 1 -92 -19 -63 -42 -70 -70 -70 -271 0
-193 6 -222 55 -267 23 -22 36 -25 95 -25 l68 0 19 -46 20 -46 -34 -23 c-45
-31 -63 -68 -63 -132 l0 -52 148 -148 148 -148 53 0 c61 0 105 22 135 68 l19
29 46 -19 46 -19 -3 -63 c-3 -56 -1 -66 24 -96 35 -40 79 -60 138 -60 l45 0 3
-531 3 -531 24 -19 c31 -25 85 -25 111 1 19 19 20 33 20 550 l0 530 53 0 c65
0 114 24 145 70 20 30 23 44 19 92 l-5 57 45 17 45 18 32 -36 c17 -20 41 -41
53 -47 31 -15 99 -14 131 3 45 24 280 268 287 299 4 16 5 47 2 70 -4 34 -15
50 -51 84 l-46 41 19 43 19 43 55 -3 c62 -3 104 14 136 55 20 25 21 39 21 233
0 187 -2 209 -20 238 -28 47 -73 67 -137 60 l-53 -6 -20 46 -20 46 22 16 c64
44 87 96 73 168 -5 28 -30 61 -118 151 -141 144 -178 172 -229 172 -45 0 -104
-24 -118 -49 -30 -51 -34 -53 -83 -31 l-46 20 6 48 c7 62 -15 115 -59 142 -30
18 -50 20 -241 20 l-207 0 -38 -34z m383 -185 c0 -62 3 -73 27 -98 24 -25 132
-76 205 -98 40 -11 100 13 135 55 l33 39 92 -91 92 -92 -39 -33 c-42 -36 -66
-96 -55 -136 22 -73 73 -181 98 -205 25 -24 36 -27 98 -27 l69 0 0 -132 0
-133 -44 6 c-52 8 -105 -8 -133 -39 -21 -22 -65 -119 -85 -186 -14 -50 4 -101
51 -144 l39 -35 -93 -92 -92 -92 -22 31 c-52 72 -125 79 -251 23 -108 -48
-133 -80 -128 -165 l3 -57 -130 0 -130 0 0 63 c0 89 -21 114 -132 160 -61 25
-104 37 -138 37 -44 0 -52 -4 -90 -44 l-43 -44 -91 92 -92 93 26 17 c38 25 65
75 65 121 0 23 -15 76 -37 128 -46 111 -71 132 -160 132 l-63 0 0 130 0 130
57 -3 c85 -5 117 20 165 128 56 126 49 199 -23 251 l-31 22 92 92 91 91 42
-41 c60 -60 95 -64 199 -24 46 18 97 43 115 56 39 28 57 81 49 139 l-6 44 133
0 132 0 0 -69z m-2690 -1260 c224 -76 380 -272 409 -514 l6 -48 -368 4 c-247
2 -379 7 -402 15 -20 7 -66 30 -102 52 -96 57 -127 55 -189 -11 -43 -47 -53
-52 -98 -57 -51 -5 -51 -4 -51 25 0 51 38 181 70 242 143 267 444 389 725 292z
m-335 -711 c36 -5 220 -10 409 -10 l344 0 -6 -137 c-7 -161 -28 -249 -88 -363
-51 -99 -126 -189 -208 -250 -255 -192 -569 -126 -771 162 -96 137 -140 286
-140 479 l0 109 43 0 c62 0 136 25 177 58 l34 29 71 -33 c38 -18 99 -38 135
-44z m1738 -797 c26 -46 59 -53 237 -53 178 0 211 7 237 53 9 15 15 84 18 212
l5 190 51 -48 c116 -108 170 -285 130 -434 -35 -131 -132 -249 -250 -304 -37
-17 -71 -39 -76 -49 -6 -12 -10 -191 -10 -459 l0 -441 -105 0 -105 0 0 441 c0
277 -4 447 -10 459 -6 11 -41 34 -78 51 -132 63 -229 195 -254 343 -22 135 28
284 131 386 l56 55 5 -190 c3 -128 9 -197 18 -212z m-1593 -232 c54 0 117 7
159 18 l68 18 -4 -91 c-3 -67 -10 -102 -25 -131 -42 -80 -114 -126 -196 -126
-93 0 -160 41 -202 124 -21 43 -25 65 -25 137 l0 86 68 -17 c40 -11 103 -18
157 -18z"/>
<path d="M4015 4200 c-360 -56 -499 -502 -236 -754 70 -66 144 -103 238 -118
289 -48 548 210 502 502 -37 242 -264 408 -504 370z m-15 -435 c0 -191 -3
-265 -11 -265 -22 0 -79 42 -119 87 -97 110 -87 277 22 379 31 30 84 63 101
64 4 0 7 -119 7 -265z m236 233 c61 -41 109 -112 124 -182 24 -118 -39 -245
-152 -302 l-48 -24 0 270 c0 224 2 270 14 270 7 0 36 -15 62 -32z"/>
<path d="M1680 4030 c-28 -28 -27 -90 1 -116 20 -18 46 -19 522 -22 347 -2
510 1 528 8 51 21 63 86 24 125 l-24 25 -516 0 c-502 0 -516 -1 -535 -20z"/>
<path d="M1983 3720 c-45 -18 -58 -95 -23 -130 19 -19 33 -20 399 -20 l380 0
20 26 c28 35 26 67 -3 101 l-24 28 -364 2 c-199 1 -373 -2 -385 -7z"/>
<path d="M2166 3379 c-20 -16 -26 -29 -26 -59 0 -30 6 -43 26 -59 26 -20 39
-21 294 -21 248 0 270 1 291 19 18 14 24 29 24 61 0 32 -6 47 -24 61 -21 18
-43 19 -291 19 -255 0 -268 -1 -294 -21z"/>
<path d="M2326 3099 c-33 -26 -37 -88 -6 -119 19 -19 33 -20 213 -20 154 0
197 3 214 15 44 31 37 111 -13 134 -16 7 -92 11 -203 11 -165 0 -180 -2 -205
-21z"/>
</g>
</svg>
