<?xml version="1.0" standalone="no"?>
<!DOCTYPE svg PUBLIC "-//W3C//DTD SVG 20010904//EN"
 "http://www.w3.org/TR/2001/REC-SVG-20010904/DTD/svg10.dtd">
<svg version="1.0" xmlns="http://www.w3.org/2000/svg"
 width="512.000000pt" height="512.000000pt" viewBox="0 0 512.000000 512.000000"
 preserveAspectRatio="xMidYMid meet">

<g transform="translate(0.000000,512.000000) scale(0.100000,-0.100000)"
fill="#000000" stroke="none">
<path d="M1282 5104 c-96 -25 -192 -88 -242 -158 l-31 -42 -102 -11 c-676 -76
-1089 -781 -824 -1409 136 -323 456 -566 800 -609 l57 -7 0 -307 0 -308 -81
-12 c-340 -52 -643 -288 -776 -605 -265 -626 144 -1328 819 -1408 l107 -12 33
-44 c41 -54 122 -114 197 -144 53 -22 71 -23 378 -26 l323 -3 25 25 c32 32 32
70 0 101 l-24 25 -295 0 c-321 0 -355 5 -425 58 l-34 25 74 18 c291 70 548
282 679 562 61 131 82 220 87 388 4 114 2 165 -12 230 -39 195 -132 371 -270
514 -157 162 -346 260 -575 298 l-75 13 0 304 0 304 75 13 c105 17 270 72 297
99 46 46 17 124 -45 124 -16 0 -55 -11 -88 -24 -112 -45 -203 -59 -353 -54
-120 4 -148 9 -233 38 -276 92 -478 303 -565 587 -23 78 -26 105 -26 233 -1
118 3 160 21 223 82 298 322 538 619 619 63 17 106 21 223 21 129 0 155 -3
233 -26 284 -87 495 -289 587 -565 30 -86 34 -112 38 -237 3 -118 1 -154 -17
-228 -33 -139 -95 -261 -193 -378 -27 -32 -38 -55 -38 -77 0 -61 66 -93 117
-57 37 26 139 171 182 258 22 45 52 123 67 172 26 83 28 103 28 270 1 158 -2
190 -22 265 -98 358 -389 645 -741 729 l-74 18 36 27 c74 57 64 56 887 56 751
0 758 0 784 21 36 28 36 80 0 108 -27 21 -32 21 -793 20 -628 0 -775 -3 -819
-15z m-64 -3024 c316 -76 566 -326 642 -642 24 -100 27 -280 6 -380 -67 -312
-297 -559 -613 -655 -78 -23 -104 -26 -233 -26 -117 0 -160 4 -223 21 -297 81
-537 321 -619 619 -18 63 -22 105 -21 223 0 128 3 155 26 233 96 314 340 543
652 612 95 21 285 18 383 -5z"/>
<path d="M720 1843 c-23 -8 -321 -305 -331 -330 -11 -30 92 -686 116 -737 22
-47 84 -100 134 -114 26 -8 149 -12 382 -12 369 1 387 3 453 54 59 44 71 86
125 436 28 179 51 336 51 350 0 19 -39 64 -164 189 -141 141 -169 164 -195
164 -43 0 -71 -28 -71 -71 0 -30 11 -46 87 -123 l87 -89 -379 0 -379 0 92 94
c51 51 92 100 92 109 0 29 -22 65 -47 76 -26 12 -30 12 -53 4z m766 -460 c-3
-16 -24 -143 -46 -283 -37 -238 -41 -257 -65 -277 -26 -23 -28 -23 -361 -23
l-335 0 -24 25 c-14 13 -25 30 -25 37 0 7 -18 126 -40 263 -22 138 -40 258
-40 268 0 16 29 17 471 17 l471 0 -6 -27z"/>
<path d="M822 1267 c-20 -21 -22 -34 -22 -154 0 -130 0 -132 26 -152 30 -24
43 -26 78 -10 39 18 48 55 44 184 -3 109 -5 118 -27 136 -32 26 -73 24 -99 -4z"/>
<path d="M1112 1267 c-20 -21 -22 -34 -22 -154 0 -130 0 -132 26 -152 30 -24
43 -26 78 -10 39 18 48 55 44 184 -3 109 -5 118 -27 136 -32 26 -73 24 -99 -4z"/>
<path d="M3150 5102 c-17 -14 -24 -30 -24 -56 0 -71 -4 -70 357 -76 l322 -5
51 -27 c82 -43 83 -52 11 -67 -282 -58 -556 -283 -687 -564 -61 -131 -82 -220
-87 -388 -4 -113 -2 -165 11 -228 51 -250 186 -467 384 -616 140 -105 289
-169 462 -198 l75 -13 0 -304 0 -304 -73 -13 c-227 -38 -421 -138 -577 -298
-138 -142 -231 -319 -270 -514 -24 -116 -16 -342 15 -456 96 -353 389 -640
739 -724 l74 -18 -34 -25 c-78 -59 -59 -58 -895 -58 l-765 0 -24 -25 c-32 -31
-32 -69 0 -101 l25 -25 792 3 793 3 56 23 c75 30 157 90 197 144 l33 44 102
12 c132 14 232 45 253 77 21 32 10 81 -23 102 -23 15 -31 15 -121 -8 -141 -35
-330 -33 -455 5 -284 85 -494 288 -587 564 -30 86 -34 112 -38 237 -3 118 -1
154 17 228 77 323 325 571 648 648 74 18 110 20 228 17 125 -4 151 -8 237 -38
616 -207 798 -983 338 -1439 -77 -76 -87 -98 -65 -140 18 -35 55 -49 91 -32
68 31 208 199 273 330 135 268 145 579 28 857 -136 323 -456 566 -800 609
l-57 7 0 308 0 308 57 7 c406 51 754 364 854 770 145 586 -272 1180 -875 1247
l-105 12 -28 38 c-38 53 -131 122 -201 150 -55 22 -70 23 -383 26 -309 3 -326
2 -349 -16z m1173 -381 c294 -77 537 -320 619 -618 17 -63 21 -106 21 -223 0
-129 -3 -155 -26 -233 -87 -284 -289 -495 -565 -587 -86 -30 -112 -34 -237
-38 -118 -3 -154 -1 -228 17 -323 77 -571 325 -648 648 -18 74 -20 110 -17
228 4 125 8 151 38 237 103 308 361 529 687 588 77 14 268 4 356 -19z"/>
<path d="M3731 4325 c-77 -22 -166 -72 -180 -101 -7 -17 -11 -136 -11 -375 l0
-350 25 -24 c32 -33 49 -31 131 7 56 27 84 33 150 36 70 3 90 0 145 -23 35
-15 76 -32 91 -38 24 -10 37 -7 99 23 66 33 78 35 168 35 89 0 101 -3 158 -33
73 -38 91 -39 127 -11 l26 21 -2 371 -3 371 -43 29 c-127 85 -335 101 -465 35
l-38 -19 -67 27 c-84 34 -227 42 -311 19z m244 -156 l55 -20 0 -251 0 -250
-37 8 c-48 11 -216 12 -265 1 l-38 -8 0 250 0 250 53 20 c70 27 160 27 232 0z
m498 -2 l37 -16 0 -251 0 -252 -32 9 c-43 10 -223 10 -266 0 l-32 -9 2 254 3
253 50 18 c61 21 181 18 238 -6z"/>
<path d="M2136 4799 c-19 -15 -26 -30 -26 -54 0 -24 7 -39 26 -54 26 -20 39
-21 299 -21 252 0 275 1 296 19 17 13 23 29 23 56 0 27 -6 43 -23 56 -21 18
-44 19 -296 19 -260 0 -273 -1 -299 -21z"/>
<path d="M2889 4801 c-49 -40 -18 -131 46 -131 38 0 75 37 75 75 0 62 -72 96
-121 56z"/>
<path d="M714 4361 c-35 -15 -72 -69 -79 -114 -3 -23 -5 -204 -3 -402 3 -329
5 -362 21 -387 29 -42 67 -62 117 -61 40 0 82 21 364 184 175 101 331 197 347
212 49 49 48 137 -4 185 -12 11 -164 102 -337 202 -257 149 -323 183 -360 186
-25 2 -54 0 -66 -5z m359 -316 c152 -88 273 -163 269 -167 -12 -11 -546 -318
-554 -318 -5 0 -8 147 -8 326 0 179 4 324 8 322 5 -1 133 -75 285 -163z"/>
<path d="M2451 3380 c-210 -29 -407 -140 -537 -304 -69 -86 -135 -219 -159
-318 -10 -40 -19 -75 -21 -77 -2 -2 -26 17 -53 42 -56 52 -76 57 -115 26 -19
-15 -26 -29 -26 -57 0 -33 11 -47 118 -154 92 -92 124 -118 145 -118 18 0 54
23 119 78 193 161 213 189 169 243 -32 39 -78 31 -145 -25 -31 -27 -56 -44
-56 -38 0 28 46 155 77 210 39 71 136 179 200 223 122 84 240 121 388 121 263
1 487 -138 607 -375 90 -179 90 -415 0 -594 -110 -217 -300 -347 -546 -374
-77 -9 -95 -14 -113 -35 -26 -28 -28 -42 -12 -78 18 -38 59 -48 155 -36 289
36 531 208 654 464 62 129 74 190 74 356 0 166 -12 227 -74 356 -130 270 -396
448 -700 467 -47 3 -114 1 -149 -3z"/>
<path d="M2507 3042 c-10 -11 -17 -35 -17 -59 0 -35 -4 -42 -29 -52 -36 -16
-97 -78 -110 -114 -6 -16 -11 -53 -11 -83 0 -107 65 -181 199 -228 44 -15 87
-36 95 -45 26 -29 20 -78 -13 -112 -25 -24 -37 -29 -81 -29 -31 0 -66 8 -90
20 -22 11 -51 20 -65 20 -34 0 -65 -33 -65 -71 0 -40 42 -81 107 -101 43 -14
49 -19 58 -55 14 -57 31 -73 75 -73 47 0 68 23 76 83 5 31 12 47 21 47 26 0
118 103 131 146 25 87 9 170 -46 227 -31 33 -75 57 -149 81 -74 25 -103 50
-103 91 0 65 71 85 140 39 51 -34 94 -27 116 19 22 46 6 81 -55 118 -42 27
-50 36 -55 72 -4 23 -14 49 -23 59 -22 24 -85 24 -106 0z"/>
<path d="M3863 1726 l-28 -24 -3 -245 -3 -244 -68 5 c-83 6 -125 -7 -180 -54
-132 -114 -112 -315 41 -399 95 -53 218 -35 289 42 66 71 64 54 69 438 l5 350
278 3 277 2 0 -194 0 -193 -69 5 c-84 6 -130 -9 -183 -56 -59 -53 -82 -105
-83 -182 -1 -259 340 -342 458 -111 l27 55 0 387 c0 366 -1 388 -19 410 l-19
24 -380 3 -380 3 -29 -25z m-59 -682 c45 -46 33 -119 -25 -150 -63 -32 -134
14 -134 88 0 80 101 120 159 62z m710 -5 c68 -81 -17 -194 -109 -145 -61 33
-72 100 -26 147 42 42 99 41 135 -2z"/>
</g>
</svg>
