<?xml version="1.0" standalone="no"?>
<!DOCTYPE svg PUBLIC "-//W3C//DTD SVG 20010904//EN"
 "http://www.w3.org/TR/2001/REC-SVG-20010904/DTD/svg10.dtd">
<svg version="1.0" xmlns="http://www.w3.org/2000/svg"
 width="512.000000pt" height="512.000000pt" viewBox="0 0 512.000000 512.000000"
 preserveAspectRatio="xMidYMid meet">

<g transform="translate(0.000000,512.000000) scale(0.100000,-0.100000)"
fill="#000000" stroke="none">
<path d="M1324 5075 c-38 -19 -84 -65 -203 -200 -85 -96 -159 -175 -164 -175
-6 0 -60 16 -121 36 -137 44 -219 52 -305 30 -112 -29 -174 -69 -273 -180 -97
-109 -127 -160 -128 -218 0 -78 44 -137 145 -193 33 -18 271 -142 530 -275
259 -133 474 -246 478 -250 5 -4 -62 -107 -148 -228 l-157 -220 -187 65 c-102
36 -217 76 -255 89 -93 32 -151 38 -222 24 -84 -17 -146 -54 -216 -129 -73
-78 -102 -138 -95 -193 7 -55 43 -96 133 -153 44 -27 158 -101 254 -165 l176
-115 -25 -60 c-68 -166 0 -352 152 -410 46 -17 46 -17 51 -74 4 -31 13 -111
22 -178 27 -211 122 -531 165 -554 33 -17 80 -7 103 24 l20 27 -41 123 c-68
200 -101 361 -116 565 l-5 63 35 14 c19 8 47 23 62 34 l28 20 184 -217 c220
-260 239 -278 289 -293 61 -18 112 1 176 67 113 115 150 202 142 331 -5 71
-11 85 -132 330 -99 200 -124 258 -115 269 16 19 379 349 387 351 4 1 53 -66
109 -150 161 -242 157 -237 202 -237 46 0 71 24 71 69 0 25 -29 76 -130 225
-71 106 -130 196 -129 202 1 10 449 418 453 412 2 -2 108 -228 237 -503 l234
-500 0 -90 c0 -114 -16 -149 -124 -265 -71 -76 -81 -83 -101 -74 -13 6 -80 93
-149 194 -69 102 -137 190 -150 196 -47 24 -101 -13 -101 -68 0 -24 218 -359
268 -411 60 -64 148 -84 218 -51 37 18 177 161 224 230 52 74 72 156 68 269
-3 97 -5 104 -61 224 -49 107 -55 127 -43 140 7 9 78 88 156 176 78 88 151
178 161 200 21 46 24 119 7 179 -9 31 -34 62 -107 134 -108 104 -172 142 -240
142 -90 0 -120 -15 -209 -107 -46 -46 -85 -83 -88 -81 -2 2 -21 42 -43 89
l-40 84 92 84 c199 183 280 278 343 403 l34 67 52 -5 c86 -9 286 -52 376 -79
l82 -26 -31 -45 c-47 -69 -62 -124 -57 -209 8 -120 60 -207 288 -485 77 -94
125 -176 135 -231 9 -46 -7 -84 -77 -180 -65 -91 -140 -233 -162 -308 -22 -76
-21 -195 3 -248 27 -59 93 -118 159 -144 31 -11 111 -29 177 -39 137 -20 169
-31 208 -68 39 -36 53 -66 66 -136 27 -145 122 -239 280 -276 67 -16 222 -8
274 13 35 15 37 15 37 -2 0 -31 -59 -226 -96 -318 -19 -48 -58 -131 -85 -185
l-51 -97 -64 49 c-188 144 -372 210 -586 210 -245 0 -440 -93 -563 -269 -99
-142 -203 -217 -355 -258 -49 -14 -101 -18 -210 -17 -131 0 -152 3 -225 28
-49 17 -104 46 -145 76 -292 216 -627 195 -799 -51 -45 -63 -76 -142 -108
-269 l-9 -35 -120 120 c-102 102 -175 191 -290 350 -40 57 -134 28 -134 -42 0
-53 179 -283 346 -443 282 -272 630 -459 1018 -550 328 -76 735 -67 1069 25
750 205 1350 816 1537 1565 52 207 65 315 65 545 0 259 -23 416 -95 650 -145
478 -468 906 -895 1188 -246 162 -577 287 -880 331 -68 10 -89 16 -86 27 2 8
6 78 9 156 9 269 -42 390 -195 460 -103 47 -301 40 -498 -19 -197 -58 -349
-184 -534 -443 -52 -71 -97 -134 -101 -139 -7 -6 -85 14 -188 49 -9 3 8 28 48
72 78 85 102 136 101 214 0 85 -32 139 -143 235 -49 44 -106 87 -126 96 -57
27 -147 23 -208 -7z m188 -162 c119 -103 138 -126 138 -165 0 -33 -10 -49 -82
-130 -45 -51 -87 -93 -93 -92 -6 1 -89 27 -184 59 -156 52 -171 59 -158 74 68
81 250 281 260 284 38 16 79 6 119 -30z m1413 -39 c63 -33 88 -91 93 -224 11
-271 -62 -453 -260 -646 -205 -201 -1846 -1678 -1883 -1695 -77 -35 -160 -18
-190 41 -20 39 -19 126 3 172 29 62 1453 2057 1520 2129 72 78 185 157 266
188 162 60 371 76 451 35z m-1706 -424 c516 -170 522 -172 508 -194 -8 -11
-88 -125 -179 -253 l-165 -232 -526 272 c-289 150 -538 281 -554 293 -24 19
-26 24 -16 45 16 34 140 170 178 196 48 33 124 53 181 49 29 -2 270 -76 573
-176z m2649 -434 c181 -91 358 -223 514 -382 337 -343 531 -765 579 -1255 14
-151 8 -323 -14 -364 -36 -70 -104 -107 -207 -113 -59 -3 -87 0 -131 17 -82
31 -115 71 -134 160 -27 128 -81 203 -183 255 -60 30 -106 42 -210 55 -121 15
-162 29 -199 66 -30 30 -33 39 -33 90 0 91 50 202 168 370 58 82 91 158 92
210 0 55 -30 149 -71 217 -21 37 -88 127 -147 200 -145 180 -159 199 -187 260
-26 56 -31 110 -15 154 13 33 68 104 81 104 5 0 49 -20 97 -44z m-781 -505
c113 -91 143 -126 143 -163 0 -26 -9 -47 -32 -75 -72 -85 -232 -263 -237 -263
-3 1 -41 77 -84 171 l-79 170 25 32 c14 17 54 62 89 100 78 83 102 87 175 28z
m-2429 -358 c122 -43 222 -81 222 -84 0 -6 -203 -294 -220 -312 -7 -8 -478
294 -494 317 -7 10 3 29 33 65 61 72 128 104 201 96 19 -2 135 -39 258 -82z
m882 -783 c118 -236 131 -279 110 -356 -12 -42 -99 -154 -120 -154 -7 0 -384
436 -391 454 -3 6 276 273 288 275 2 1 53 -98 113 -219z m2652 -1105 c123 -26
264 -98 378 -194 l34 -29 -59 -78 c-78 -105 -279 -304 -387 -385 -297 -221
-627 -354 -988 -398 -121 -16 -387 -13 -510 4 -288 41 -587 149 -816 297 l-70
45 7 77 c9 97 42 195 83 249 135 177 351 182 591 12 133 -94 231 -124 425
-132 110 -4 152 -1 230 15 195 40 343 128 435 257 142 199 274 272 490 274 50
0 120 -6 157 -14z"/>
<path d="M2479 4682 c-57 -7 -83 -82 -43 -123 11 -11 43 -23 72 -28 81 -13
148 -74 172 -160 5 -18 17 -42 26 -52 24 -27 78 -25 105 4 61 64 -43 258 -176
326 -45 23 -116 38 -156 33z"/>
</g>
</svg>
