<?xml version="1.0" standalone="no"?>
<!DOCTYPE svg PUBLIC "-//W3C//DTD SVG 20010904//EN"
 "http://www.w3.org/TR/2001/REC-SVG-20010904/DTD/svg10.dtd">
<svg version="1.0" xmlns="http://www.w3.org/2000/svg"
 width="512.000000pt" height="512.000000pt" viewBox="0 0 512.000000 512.000000"
 preserveAspectRatio="xMidYMid meet">

<g transform="translate(0.000000,512.000000) scale(0.100000,-0.100000)"
fill="#000000" stroke="none">
<path d="M2635 5104 c-58 -21 -106 -64 -140 -125 l-30 -54 0 -262 0 -262 28
-28 c26 -28 27 -33 27 -132 0 -128 -12 -156 -86 -205 -29 -20 -55 -36 -58 -36
-2 0 -5 26 -8 58 -9 126 -99 252 -226 314 -62 31 -74 33 -167 33 -88 0 -107
-3 -158 -27 -82 -38 -134 -83 -178 -150 -61 -96 -76 -207 -46 -348 l14 -65
-78 4 c-66 3 -86 -1 -131 -21 -136 -63 -203 -217 -154 -356 23 -64 52 -97 172
-193 139 -111 141 -112 117 -136 -98 -98 -183 -269 -183 -367 0 -57 -1 -57
-195 -54 -108 2 -180 7 -181 13 -2 6 31 30 73 55 106 62 244 198 279 274 21
46 25 69 22 110 -9 107 -78 156 -219 156 -104 0 -182 -18 -310 -71 -55 -23
-101 -40 -103 -38 -1 2 -24 43 -49 91 l-47 88 28 17 c180 111 274 198 323 298
27 55 31 73 27 118 -6 68 -29 100 -96 133 -49 25 -60 26 -150 22 -102 -5 -229
-41 -331 -93 l-49 -25 -46 84 c-112 208 -123 375 -34 556 37 76 150 195 218
230 228 116 473 81 645 -94 58 -60 84 -98 153 -229 46 -86 92 -162 102 -167
48 -26 110 9 110 62 0 15 -39 100 -87 190 -78 145 -97 173 -173 249 -73 74
-99 93 -180 132 -52 25 -120 51 -150 58 -79 19 -251 17 -329 -4 -242 -66 -431
-254 -497 -497 -28 -104 -24 -273 9 -375 17 -51 150 -312 362 -710 l335 -630
-178 -5 c-172 -5 -179 -6 -225 -33 -26 -16 -60 -47 -75 -69 -26 -41 -27 -45
-30 -217 -2 -109 1 -190 8 -213 24 -83 102 -137 207 -146 37 -3 63 -9 63 -16
0 -6 9 -95 21 -197 l22 -186 -262 -436 c-144 -240 -268 -452 -276 -472 -56
-133 50 -285 199 -285 112 0 146 31 287 269 62 102 117 192 124 200 11 11 14
-1 20 -65 6 -62 12 -82 31 -101 30 -30 74 -30 102 0 27 28 27 41 2 240 l-19
157 267 445 267 445 1197 0 1197 0 267 -445 267 -445 -47 -407 c-26 -225 -52
-422 -57 -439 -12 -40 -77 -102 -120 -114 -21 -6 -571 -10 -1514 -10 -1424 0
-1482 1 -1521 19 -40 18 -84 65 -98 106 -4 11 -13 69 -21 130 -11 91 -17 112
-35 127 -30 24 -71 23 -99 -4 -23 -20 -23 -26 -17 -111 13 -169 36 -234 108
-313 22 -24 66 -56 97 -71 l56 -28 1535 0 1535 0 56 26 c72 34 134 96 166 165
21 46 31 106 63 375 20 176 39 322 42 324 2 2 55 -82 118 -188 63 -105 128
-206 143 -224 62 -71 198 -84 279 -27 58 41 88 101 88 179 l0 63 -274 458
-275 459 19 165 c29 247 24 230 69 230 20 0 60 7 88 15 61 18 126 83 142 141
14 50 14 318 0 367 -13 47 -67 109 -117 133 -30 15 -69 19 -209 22 l-173 4 0
153 0 152 -135 169 -135 169 0 145 c-1 195 -18 241 -105 281 -33 16 -66 19
-201 19 l-160 0 -35 46 c-35 48 -138 136 -239 204 -87 59 -90 65 -90 203 0
113 1 121 26 150 l25 30 -3 261 c-3 245 -4 263 -25 301 -25 47 -74 95 -123
121 -30 17 -62 19 -240 21 -160 2 -214 -1 -245 -13z m433 -154 c18 -11 37 -32
42 -46 6 -14 10 -113 10 -220 l0 -194 -252 2 -253 3 -3 188 c-4 285 -3 286
253 287 153 0 173 -2 203 -20z m2 -732 c0 -109 3 -129 24 -173 26 -55 74 -104
151 -155 28 -18 70 -49 95 -69 l45 -36 -145 -5 c-129 -4 -149 -8 -182 -28 -65
-40 -78 -84 -78 -260 l0 -152 -137 -172 -138 -173 -3 -152 -4 -153 -49 0 -49
0 0 38 c0 99 -72 260 -155 350 l-53 58 132 106 c168 136 191 172 191 298 0 96
-13 129 -74 193 -50 54 -105 79 -181 86 l-65 6 98 68 c146 102 177 162 177
344 l0 103 200 0 200 0 0 -122z m-1018 30 c51 -15 126 -82 149 -133 11 -23 19
-63 19 -94 0 -30 -31 -204 -70 -386 -38 -182 -70 -335 -70 -338 0 -4 -47 -7
-105 -7 -58 0 -105 1 -105 3 0 2 -30 143 -66 313 -36 170 -69 332 -74 359 -32
189 138 338 322 283z m-1207 -449 c14 -21 -7 -61 -67 -124 -56 -61 -198 -165
-223 -165 -5 0 -33 45 -62 99 l-52 99 55 26 c51 24 143 58 189 69 39 9 154 7
160 -4z m742 -149 c47 -28 76 -97 108 -250 15 -74 30 -140 32 -147 3 -7 -7
-15 -21 -19 -22 -5 -45 10 -158 101 -73 59 -141 119 -150 134 -11 16 -18 45
-18 75 0 43 4 53 39 87 34 35 44 39 87 39 31 0 61 -7 81 -20z m927 -1 c41 -32
59 -75 53 -126 -6 -54 -18 -68 -175 -195 -103 -84 -127 -99 -148 -94 -18 5
-24 12 -20 24 2 9 17 76 31 147 43 206 83 265 180 265 38 0 60 -6 79 -21z
m1384 -141 l3 -118 -386 0 -385 0 0 113 c0 63 3 117 7 120 4 4 176 6 382 5
l376 -3 3 -117z m114 -366 l78 -97 -191 -5 c-174 -5 -192 -7 -205 -24 -21 -29
-18 -80 7 -102 19 -17 41 -19 245 -22 l224 -3 0 -100 0 -99 -660 0 -660 0 0
123 0 123 121 152 120 152 422 0 422 0 77 -98z m-2815 -8 c9 -25 -17 -64 -92
-139 -62 -61 -148 -122 -195 -139 -11 -4 -29 21 -67 95 l-52 101 67 31 c96 45
177 65 260 66 57 1 74 -2 79 -15z m898 -8 c113 -30 220 -107 281 -202 38 -59
74 -159 74 -204 l0 -30 -478 0 -479 0 9 57 c27 170 187 343 354 382 59 14 183
12 239 -3z m2566 -615 c17 -20 19 -40 19 -163 0 -134 -1 -140 -25 -163 l-24
-25 -229 0 -230 0 -77 130 c-42 71 -94 145 -115 164 -133 120 -350 20 -350
-162 0 -29 7 -69 15 -89 8 -19 15 -37 15 -39 0 -2 -495 -4 -1100 -4 -605 0
-1100 2 -1100 3 0 2 7 18 16 36 42 85 22 185 -52 250 -73 64 -157 75 -244 31
-48 -25 -62 -42 -150 -188 l-76 -127 -238 0 c-224 0 -238 1 -252 19 -11 15
-14 55 -14 165 0 80 4 151 8 158 4 7 19 16 32 22 16 6 745 9 2088 8 l2064 -2
19 -24z m-3334 -177 c16 -16 24 -33 21 -47 -4 -23 -959 -1622 -1005 -1684 -19
-26 -31 -33 -58 -33 -36 0 -65 28 -65 64 0 29 1011 1706 1035 1716 33 14 45
11 72 -16z m2556 4 c40 -37 1017 -1676 1017 -1705 0 -52 -62 -83 -102 -50 -28
22 -1018 1684 -1018 1709 0 28 9 41 35 56 29 17 41 15 68 -10z m-3041 -360
c-11 -18 -36 -59 -55 -91 -34 -57 -35 -58 -40 -30 -3 15 -9 56 -12 91 l-7 62
67 0 67 0 -20 -32z m3552 0 c-3 -18 -8 -60 -12 -93 l-7 -60 -53 86 c-28 48
-52 90 -52 93 0 3 29 6 64 6 l65 0 -5 -32z"/>
<path d="M1529 1796 c-57 -20 -96 -53 -118 -99 -19 -39 -21 -61 -21 -216 0
-149 2 -177 19 -209 73 -142 263 -151 346 -17 29 48 30 51 33 205 2 97 -1 173
-8 199 -16 61 -71 118 -133 136 -60 18 -71 18 -118 1z m91 -156 c18 -18 20
-33 20 -157 0 -147 -8 -173 -55 -173 -41 0 -45 16 -45 171 0 141 1 149 22 163
29 20 34 20 58 -4z"/>
<path d="M2499 1795 c-57 -18 -113 -77 -129 -136 -7 -26 -10 -102 -8 -198 3
-139 6 -161 26 -198 74 -139 280 -134 352 8 18 34 20 59 20 212 0 163 -1 177
-23 218 -44 82 -146 123 -238 94z m89 -151 c21 -14 22 -22 22 -163 0 -101 -4
-151 -12 -159 -17 -17 -48 -15 -70 5 -16 14 -18 33 -18 155 0 125 2 140 20
158 24 24 29 24 58 4z"/>
<path d="M3479 1796 c-57 -20 -96 -53 -118 -99 -19 -39 -21 -61 -21 -216 0
-149 2 -177 19 -209 73 -142 263 -151 346 -17 29 48 30 51 33 205 2 97 -1 173
-8 199 -16 61 -71 118 -133 136 -60 18 -71 18 -118 1z m91 -156 c18 -18 20
-33 20 -157 0 -147 -8 -173 -55 -173 -41 0 -45 17 -45 169 0 120 3 147 17 163
21 23 38 23 63 -2z"/>
<path d="M2016 986 c-57 -21 -88 -47 -115 -96 -20 -36 -25 -60 -29 -160 -9
-217 12 -293 96 -350 30 -21 47 -25 107 -25 60 0 77 4 107 25 84 57 105 133
96 349 -6 152 -30 202 -114 245 -48 23 -104 28 -148 12z m105 -173 c14 -37 11
-253 -4 -283 -17 -34 -60 -39 -81 -8 -13 18 -16 49 -16 145 0 67 4 133 9 147
16 42 76 41 92 -1z"/>
<path d="M3025 995 c-5 -2 -22 -6 -37 -9 -39 -9 -98 -64 -119 -111 -27 -59
-27 -351 0 -410 71 -153 291 -153 362 0 16 34 19 66 19 203 0 181 -7 213 -63
270 -37 39 -125 70 -162 57z m53 -161 c21 -14 22 -22 22 -155 0 -78 -5 -149
-10 -160 -14 -26 -66 -26 -80 0 -5 11 -10 82 -10 160 0 133 1 141 22 155 12 9
25 16 28 16 3 0 16 -7 28 -16z"/>
</g>
</svg>
