<svg width="24" height="18" viewBox="0 0 24 18" fill="none" xmlns="http://www.w3.org/2000/svg">
<path fill-rule="evenodd" clip-rule="evenodd" d="M0 2C0 0.89543 0.895431 0 2 0H22C23.1046 0 24 0.895431 24 2V16C24 17.1046 23.1046 18 22 18H2C0.89543 18 0 17.1046 0 16V2ZM8 4C8 3.44772 8.44772 3 9 3H20C20.5523 3 21 3.44772 21 4C21 4.55228 20.5523 5 20 5H9C8.44771 5 8 4.55228 8 4ZM9 8C8.44772 8 8 8.44771 8 9C8 9.55229 8.44771 10 9 10H20C20.5523 10 21 9.55229 21 9C21 8.44771 20.5523 8 20 8H9ZM8 14C8 13.4477 8.44772 13 9 13H20C20.5523 13 21 13.4477 21 14C21 14.5523 20.5523 15 20 15H9C8.44771 15 8 14.5523 8 14ZM4 3C3.44772 3 3 3.44772 3 4C3 4.55228 3.44772 5 4 5H5C5.55228 5 6 4.55228 6 4C6 3.44772 5.55228 3 5 3H4ZM3 9C3 8.44771 3.44772 8 4 8H5C5.55228 8 6 8.44771 6 9C6 9.55229 5.55228 10 5 10H4C3.44772 10 3 9.55229 3 9ZM4 13C3.44772 13 3 13.4477 3 14C3 14.5523 3.44772 15 4 15H5C5.55228 15 6 14.5523 6 14C6 13.4477 5.55228 13 5 13H4Z" fill="#9299A2"/>
</svg>
