<?xml version="1.0" standalone="no"?>
<!DOCTYPE svg PUBLIC "-//W3C//DTD SVG 20010904//EN"
 "http://www.w3.org/TR/2001/REC-SVG-20010904/DTD/svg10.dtd">
<svg version="1.0" xmlns="http://www.w3.org/2000/svg"
 width="512.000000pt" height="512.000000pt" viewBox="0 0 512.000000 512.000000"
 preserveAspectRatio="xMidYMid meet">

<g transform="translate(0.000000,512.000000) scale(0.100000,-0.100000)"
fill="#000000" stroke="none">
<path d="M2625 5036 c-54 -24 -100 -71 -121 -121 -6 -16 -22 -99 -35 -184 -18
-121 -27 -159 -43 -176 -29 -31 -170 -89 -198 -82 -13 4 -79 47 -148 98 -69
50 -139 97 -157 105 -44 19 -131 17 -169 -4 -48 -27 -231 -224 -254 -273 -25
-56 -25 -131 0 -186 10 -23 60 -95 109 -159 59 -77 91 -126 91 -143 0 -46 -62
-182 -90 -196 -14 -7 -79 -20 -145 -29 -154 -22 -208 -40 -257 -84 -75 -67
-83 -95 -83 -277 0 -181 9 -211 81 -274 49 -44 66 -49 237 -77 82 -13 158 -29
169 -35 29 -16 85 -144 90 -208 6 -63 31 -91 80 -91 43 0 65 15 78 55 16 48 5
102 -40 207 -75 172 -101 189 -338 229 -214 35 -212 33 -212 189 0 156 -2 155
211 190 242 40 272 61 341 236 42 108 49 188 24 247 -7 18 -57 91 -110 162
-69 94 -96 138 -96 159 0 24 16 46 83 113 112 112 113 112 277 -8 149 -108
171 -119 250 -119 48 0 80 8 158 41 103 42 151 80 183 140 10 21 29 107 44
200 32 208 28 203 171 207 114 4 154 -5 173 -41 6 -12 22 -90 35 -173 13 -83
32 -168 41 -188 26 -54 77 -92 185 -138 75 -32 108 -40 155 -41 78 0 106 13
255 122 82 60 134 91 151 91 33 0 88 -40 163 -119 69 -74 69 -82 -5 -183 -27
-38 -72 -99 -99 -137 -65 -88 -81 -154 -58 -233 28 -95 73 -189 106 -224 52
-55 99 -72 268 -99 211 -33 205 -28 202 -193 -4 -157 0 -153 -188 -182 -74
-12 -157 -28 -184 -37 -72 -23 -125 -81 -160 -173 -15 -41 -34 -93 -43 -115
-28 -74 -7 -152 66 -247 46 -60 83 -77 120 -56 60 37 62 87 6 170 -19 29 -35
60 -35 68 0 8 16 54 36 102 28 67 42 89 63 97 14 5 87 17 161 26 155 19 215
41 264 95 58 65 68 107 64 277 -3 146 -4 151 -33 199 -52 84 -89 102 -266 130
-85 13 -168 30 -184 38 -24 11 -37 29 -63 92 -18 44 -32 89 -32 100 0 20 45
89 147 224 55 73 73 118 73 182 0 82 -33 139 -142 245 -52 51 -110 99 -129
107 -110 45 -182 28 -328 -80 -129 -94 -161 -114 -186 -114 -39 0 -182 71
-194 96 -6 13 -20 86 -32 161 -26 160 -36 188 -87 245 -61 68 -94 78 -267 78
-137 0 -155 -2 -200 -24z"/>
<path d="M2680 4149 c-153 -26 -316 -108 -432 -217 -195 -184 -287 -427 -258
-684 39 -342 282 -618 625 -709 96 -25 287 -31 380 -10 278 61 514 261 614
519 42 109 54 194 49 330 -4 98 -10 133 -38 215 -77 230 -266 427 -491 511
-134 50 -309 68 -449 45z m285 -164 c39 -8 112 -35 163 -61 250 -123 399 -399
361 -669 -21 -153 -81 -276 -190 -384 -78 -79 -165 -132 -274 -168 -68 -22
-97 -26 -200 -26 -103 0 -132 4 -200 26 -299 99 -492 376 -471 675 29 403 412
690 811 607z"/>
<path d="M4583 2865 c-155 -34 -293 -143 -378 -300 -86 -160 -111 -191 -199
-249 -79 -53 -335 -186 -356 -186 -6 0 -28 14 -49 30 -20 17 -62 39 -94 50
-52 18 -83 20 -379 20 -420 0 -460 8 -635 126 -96 64 -207 108 -320 124 -121
18 -590 8 -665 -14 -88 -25 -177 -69 -243 -119 -79 -59 -366 -333 -383 -364
-28 -52 10 -114 72 -116 38 -1 41 1 291 236 217 204 255 217 645 217 331 0
380 -12 507 -122 26 -23 84 -58 128 -79 132 -62 190 -69 557 -69 197 0 338 -4
361 -11 54 -15 113 -77 122 -127 14 -87 -44 -177 -132 -201 -25 -7 -228 -11
-579 -11 l-541 0 -23 -25 c-30 -32 -31 -79 -1 -108 l22 -22 532 -3 c312 -1
558 1 595 7 116 18 207 83 257 182 27 52 44 144 38 204 l-4 40 148 72 c159 77
258 136 312 187 38 36 111 141 167 241 47 85 90 134 152 173 98 63 219 78 334
42 70 -22 92 -39 109 -89 10 -29 8 -39 -21 -94 -131 -249 -390 -605 -629 -865
-197 -215 -507 -478 -637 -542 -120 -59 -132 -60 -889 -60 -704 0 -798 -4
-844 -38 -75 -55 -19 -183 62 -144 12 6 31 14 42 18 11 5 355 11 765 14 l745
5 70 24 c104 35 169 71 275 151 406 309 769 714 1062 1185 161 258 175 300
144 409 -48 163 -276 252 -513 201z"/>
<path d="M480 1861 c-65 -21 -108 -56 -288 -234 -163 -162 -192 -196 -192
-221 0 -34 -36 3 779 -800 514 -507 556 -546 588 -546 30 0 52 18 214 174 194
187 218 215 243 289 20 59 20 109 1 173 -14 46 -41 76 -347 380 -661 653 -753
742 -796 765 -47 24 -157 35 -202 20z m126 -164 c12 -7 256 -241 542 -521 548
-534 546 -532 528 -598 -3 -13 -73 -90 -156 -173 l-150 -149 -152 150 c-84 82
-347 341 -584 575 l-432 426 147 146 c80 79 153 147 161 150 27 10 74 7 96 -6z"/>
</g>
</svg>
