<?xml version="1.0" standalone="no"?>
<!DOCTYPE svg PUBLIC "-//W3C//DTD SVG 20010904//EN"
 "http://www.w3.org/TR/2001/REC-SVG-20010904/DTD/svg10.dtd">
<svg version="1.0" xmlns="http://www.w3.org/2000/svg"
 width="512.000000pt" height="512.000000pt" viewBox="0 0 512.000000 512.000000"
 preserveAspectRatio="xMidYMid meet">

<g transform="translate(0.000000,512.000000) scale(0.100000,-0.100000)"
fill="#000000" stroke="none">
<path d="M2120 4590 c-141 -17 -254 -74 -366 -185 -61 -60 -90 -98 -118 -155
-53 -108 -65 -166 -73 -332 l-6 -148 -98 0 c-113 0 -192 -21 -268 -69 -86 -56
-162 -152 -191 -245 -22 -70 -178 -1160 -168 -1178 10 -20 53 -24 64 -7 3 6
44 267 90 580 93 637 93 639 184 729 78 79 141 104 278 108 l112 4 0 -163 c0
-183 4 -206 32 -214 43 -14 48 6 48 196 l0 179 650 0 650 0 2 -181 c3 -161 5
-183 21 -193 12 -8 22 -8 35 0 15 10 17 32 20 193 l2 181 98 0 c146 0 225 -32
309 -123 75 -82 89 -123 123 -372 11 -82 25 -160 30 -172 12 -28 57 -32 67 -6
8 20 -42 373 -63 442 -33 113 -132 219 -259 278 -53 24 -75 28 -182 31 l-123
4 0 133 c0 98 -5 151 -20 209 -66 258 -275 442 -540 475 -95 12 -242 12 -340
1z m442 -104 c182 -64 320 -214 363 -398 9 -38 15 -114 15 -191 l0 -127 -647
2 -648 3 2 138 c2 159 19 234 78 332 46 77 95 128 169 176 122 80 214 100 443
94 130 -3 162 -8 225 -29z"/>
<path d="M2925 2861 c-60 -4 -128 -13 -151 -19 -52 -15 -841 -348 -872 -368
-34 -22 -62 -74 -62 -114 0 -40 172 -520 202 -563 24 -34 67 -57 109 -57 25 0
245 52 362 86 16 5 17 -27 17 -583 l0 -588 23 -39 c27 -48 62 -75 113 -86 51
-12 1447 -12 1498 0 54 12 87 38 114 90 l22 44 0 584 c0 551 1 583 18 578 116
-34 336 -86 361 -86 42 0 85 23 109 57 29 43 202 523 202 563 0 41 -28 92 -64
115 -43 29 -828 355 -891 371 -48 13 -151 16 -530 19 -258 2 -519 0 -580 -4z
m-46 -150 c42 -195 210 -358 417 -407 288 -68 591 122 657 412 13 56 15 59 41
56 15 -2 51 -12 79 -22 75 -26 650 -269 660 -279 6 -6 -203 -594 -216 -608 -2
-2 -63 11 -135 29 -109 27 -133 30 -146 19 -14 -12 -16 -78 -16 -623 0 -671 1
-655 -61 -677 -45 -15 -1443 -15 -1488 0 -62 22 -61 6 -61 677 0 545 -2 611
-16 623 -13 11 -37 8 -146 -19 -72 -18 -133 -31 -135 -29 -13 14 -222 602
-216 608 4 4 154 69 332 144 311 131 419 170 432 156 3 -3 11 -30 18 -60z
m142 6 c25 -74 55 -121 110 -173 57 -53 84 -69 158 -94 105 -35 241 -21 331
33 50 31 119 96 146 139 13 20 32 63 43 95 17 52 23 58 49 61 l30 3 -9 -43
c-38 -166 -177 -309 -344 -353 -255 -66 -526 98 -584 353 l-9 43 30 -3 c26 -3
32 -9 49 -61z m719 45 c0 -34 -51 -121 -96 -162 -72 -66 -123 -85 -229 -85
-71 0 -100 5 -137 22 -64 29 -132 95 -163 156 -46 94 -70 87 300 87 307 0 325
-1 325 -18z m-1622 -605 c56 -155 105 -292 108 -304 5 -19 1 -22 -39 -28 -26
-4 -53 -3 -64 3 -21 12 -203 490 -203 535 0 13 7 31 16 38 15 13 62 36 74 38
3 0 51 -126 108 -282z m2729 271 c43 -18 63 -39 63 -66 0 -44 -182 -522 -203
-534 -11 -6 -38 -7 -64 -3 -40 6 -44 9 -39 28 7 27 210 587 213 587 1 0 15 -5
30 -12z"/>
<path d="M4022 1728 c-9 -9 -12 -73 -12 -225 0 -205 1 -213 21 -223 16 -9 25
-8 40 6 18 16 19 33 19 216 0 118 -4 207 -10 219 -12 21 -40 25 -58 7z"/>
<path d="M4014 1176 c-3 -7 -4 -33 -2 -57 3 -37 7 -45 26 -47 13 -2 30 2 38 8
17 15 19 81 2 98 -16 16 -57 15 -64 -2z"/>
<path d="M969 2150 c-49 -15 -76 -40 -115 -111 -59 -109 -159 -190 -253 -205
-35 -6 -43 -3 -70 23 -28 28 -51 85 -51 127 0 10 -10 36 -22 57 -37 66 -121
88 -185 49 -66 -40 -63 -17 -64 -552 l0 -486 -30 -31 c-77 -81 -64 -195 30
-258 l34 -23 1063 2 c1056 3 1063 3 1090 24 87 64 98 179 24 252 -28 28 -28
30 -32 168 -3 133 -4 142 -35 204 -41 83 -110 152 -193 193 l-65 32 -235 6
c-264 7 -301 15 -411 79 -110 65 -200 176 -260 320 -28 69 -53 98 -104 121
-42 20 -74 22 -116 9z m111 -95 c10 -9 25 -37 35 -63 10 -26 30 -71 46 -99
l29 -52 -75 -51 c-153 -103 -176 -225 -70 -380 l53 -78 -127 -4 c-112 -4 -132
-7 -183 -31 -70 -34 -122 -91 -159 -174 l-29 -64 -158 3 -157 3 0 175 0 175
80 6 c111 8 187 49 244 132 32 47 61 133 61 181 0 27 7 35 47 56 71 37 165
131 202 199 18 33 42 68 54 76 26 19 81 14 107 -10z m-698 -42 c10 -9 18 -26
18 -38 0 -91 72 -198 147 -218 48 -13 50 -19 29 -89 -31 -105 -119 -168 -233
-168 l-64 0 3 248 c3 268 6 282 56 282 14 0 34 -7 44 -17z m868 -253 c0 -9
105 -101 137 -119 16 -8 8 -20 -65 -95 -74 -75 -82 -87 -72 -105 20 -39 51
-25 141 65 l86 86 68 -21 c37 -12 79 -21 94 -21 56 0 53 -14 -19 -85 -70 -69
-81 -90 -58 -113 24 -24 45 -11 143 89 l100 100 140 -3 c123 -3 145 -6 185
-27 61 -32 117 -86 148 -146 24 -45 27 -63 30 -177 l4 -128 -811 0 c-446 0
-811 3 -811 8 0 20 63 113 89 131 58 42 106 51 258 51 149 0 183 7 183 39 0
10 -29 56 -64 102 -86 115 -99 143 -93 197 6 56 28 86 103 139 58 42 84 52 84
33z m1116 -803 c31 -37 31 -81 -1 -112 l-24 -25 -1041 0 -1041 0 -24 25 c-46
45 -23 123 40 138 11 2 481 4 1043 3 l1024 -1 24 -28z"/>
</g>
</svg>
