<?xml version="1.0" standalone="no"?>
<!DOCTYPE svg PUBLIC "-//W3C//DTD SVG 20010904//EN"
 "http://www.w3.org/TR/2001/REC-SVG-20010904/DTD/svg10.dtd">
<svg version="1.0" xmlns="http://www.w3.org/2000/svg"
 width="512.000000pt" height="512.000000pt" viewBox="0 0 512.000000 512.000000"
 preserveAspectRatio="xMidYMid meet">

<g transform="translate(0.000000,512.000000) scale(0.100000,-0.100000)"
fill="#000000" stroke="none">
<path d="M3593 5110 c-127 -26 -251 -98 -373 -220 -232 -232 -378 -563 -412
-937 -41 -454 118 -833 431 -1027 141 -87 127 82 106 -1366 -17 -1157 -17
-1250 -2 -1295 38 -110 105 -187 206 -233 47 -23 70 -27 146 -27 77 0 99 4
147 27 76 35 148 104 183 175 26 52 30 71 33 173 3 63 -3 639 -13 1278 -20
1343 -33 1182 101 1265 106 66 172 124 234 205 298 393 274 1081 -57 1581 -68
103 -226 263 -305 310 -150 87 -290 117 -425 91z m278 -192 c170 -83 314 -246
425 -483 163 -348 179 -790 39 -1080 -61 -128 -167 -240 -290 -310 -92 -51
-152 -123 -169 -200 -4 -17 0 -478 8 -1025 25 -1611 25 -1498 -1 -1546 -80
-150 -290 -152 -372 -5 -29 52 -28 -53 -5 1477 15 1001 15 1075 0 1122 -23 68
-83 134 -169 184 -235 136 -360 376 -374 714 -22 515 255 1049 612 1177 37 13
72 17 136 14 74 -3 95 -8 160 -39z"/>
<path d="M846 5100 c-42 -13 -89 -48 -114 -86 -27 -42 -70 -233 -122 -539 -56
-334 -73 -502 -74 -725 -1 -215 10 -274 74 -416 67 -148 216 -326 367 -440 40
-30 81 -70 90 -87 20 -37 21 104 -3 -1428 -12 -785 -13 -1039 -4 -1082 15 -72
77 -168 136 -210 75 -53 129 -70 219 -70 145 0 257 67 325 195 31 57 35 73 38
163 3 55 -3 615 -13 1245 -21 1321 -30 1184 88 1272 221 164 385 401 433 628
44 206 -7 719 -127 1299 -41 198 -59 230 -153 272 -37 16 -60 20 -94 15 -61
-8 -125 -47 -154 -93 l-23 -38 -5 -553 c-5 -533 -6 -554 -24 -568 -25 -18 -31
-18 -50 2 -14 14 -16 76 -16 536 0 381 -3 532 -12 562 -8 25 -31 59 -58 87
-104 105 -271 82 -347 -48 l-28 -48 -3 -542 c-3 -527 -3 -543 -22 -553 -14 -8
-26 -7 -40 0 -20 10 -20 21 -20 542 0 391 -3 542 -12 572 -30 101 -151 166
-252 136z m88 -166 c14 -14 16 -78 16 -553 l0 -537 23 -44 c12 -24 39 -58 60
-74 36 -29 45 -31 117 -31 72 0 81 2 117 31 21 16 48 50 61 74 l22 44 0 533
c0 520 1 534 20 553 11 11 31 20 45 20 14 0 34 -9 45 -20 19 -19 20 -33 20
-537 0 -344 4 -531 11 -558 24 -88 98 -145 188 -145 85 0 142 35 182 112 18
35 19 65 19 576 0 523 1 539 20 557 13 12 27 15 44 11 30 -7 32 -13 80 -256
76 -376 116 -703 118 -950 0 -174 -10 -226 -67 -347 -65 -139 -158 -248 -322
-380 -102 -81 -138 -131 -154 -214 -8 -39 -6 -380 9 -1248 11 -695 16 -1207
11 -1225 -24 -87 -93 -144 -183 -153 -106 -11 -210 67 -223 167 -3 23 2 581
12 1239 15 964 16 1206 6 1242 -19 68 -59 117 -162 200 -178 143 -285 283
-342 447 -26 74 -31 105 -35 213 -5 148 9 334 44 584 32 230 111 633 130 663
17 26 46 29 68 6z"/>
</g>
</svg>
