<?xml version="1.0" standalone="no"?>
<!DOCTYPE svg PUBLIC "-//W3C//DTD SVG 20010904//EN"
 "http://www.w3.org/TR/2001/REC-SVG-20010904/DTD/svg10.dtd">
<svg version="1.0" xmlns="http://www.w3.org/2000/svg"
 width="512.000000pt" height="512.000000pt" viewBox="0 0 512.000000 512.000000"
 preserveAspectRatio="xMidYMid meet">

<g transform="translate(0.000000,512.000000) scale(0.100000,-0.100000)"
fill="#000000" stroke="none">
<path d="M1185 4906 c-79 -19 -171 -74 -227 -135 -37 -41 -87 -125 -188 -316
l-137 -260 -109 -8 c-64 -4 -135 -16 -172 -28 -124 -41 -242 -160 -287 -289
-16 -48 -19 -91 -22 -320 -4 -297 -1 -312 66 -357 40 -27 71 -29 116 -7 68 32
69 39 75 341 l5 271 30 43 c17 23 48 52 70 63 l40 21 1923 3 1922 2 0 -1387
c0 -859 -4 -1414 -10 -1456 -25 -174 -152 -310 -320 -346 -41 -9 -403 -11
-1430 -9 l-1375 3 -58 23 c-112 45 -197 134 -240 250 -21 55 -22 76 -25 569
-2 282 0 513 4 513 4 0 77 -69 163 -153 167 -163 244 -224 357 -281 137 -68
92 -66 1195 -66 977 0 997 0 1080 21 165 41 333 140 375 220 8 16 14 49 14 75
0 39 -5 51 -34 80 -30 30 -41 34 -84 34 -45 0 -56 -5 -113 -51 -74 -59 -113
-81 -188 -103 -49 -14 -163 -16 -1041 -16 -1087 0 -1034 -3 -1149 63 -35 19
-150 124 -317 286 l-263 256 -1 478 c0 531 1 525 -65 553 -45 18 -79 18 -121
-2 -68 -32 -64 49 -64 -1252 0 -1140 1 -1181 20 -1256 30 -119 82 -209 175
-301 119 -120 249 -181 423 -200 l62 -7 0 -79 c0 -96 17 -141 62 -169 39 -23
76 -25 122 -6 45 19 66 67 73 171 l6 85 1045 0 1044 0 -6 -34 c-4 -18 -2 -64
3 -101 8 -55 16 -74 39 -98 60 -60 165 -40 198 38 8 20 14 67 14 114 l0 79 63
7 c279 30 493 200 589 465 l23 65 3 1464 2 1464 70 -5 c90 -7 153 -43 187
-107 22 -43 23 -52 23 -293 0 -192 3 -256 14 -283 26 -60 116 -86 182 -52 57
29 59 44 59 341 0 242 -2 277 -20 331 -43 132 -160 252 -287 294 -37 12 -108
24 -173 28 l-109 8 -136 260 c-121 231 -143 267 -201 325 -69 70 -140 110
-227 129 -79 16 -2668 14 -2737 -3z m2730 -265 c22 -10 48 -27 58 -39 10 -11
65 -107 121 -213 l104 -194 -819 -3 c-450 -1 -1187 -1 -1638 0 l-819 3 97 182
c115 217 131 239 184 264 40 18 90 19 1357 19 1255 0 1317 -1 1355 -19z"/>
<path d="M1327 1326 c-77 -28 -117 -86 -117 -168 0 -84 46 -146 127 -168 79
-23 167 11 207 79 30 51 27 139 -6 189 -43 65 -138 95 -211 68z"/>
<path d="M3681 1328 c-81 -23 -124 -80 -125 -167 -1 -93 55 -161 145 -176 111
-19 209 60 209 168 0 88 -48 154 -128 177 -43 12 -55 12 -101 -2z"/>
<path d="M2165 1283 c-82 -22 -116 -126 -67 -202 32 -49 53 -51 462 -51 409 0
430 2 462 51 26 41 30 83 13 127 -32 79 -20 77 -460 79 -214 0 -399 -1 -410
-4z"/>
</g>
</svg>
