<?xml version="1.0" standalone="no"?>
<!DOCTYPE svg PUBLIC "-//W3C//DTD SVG 20010904//EN"
 "http://www.w3.org/TR/2001/REC-SVG-20010904/DTD/svg10.dtd">
<svg version="1.0" xmlns="http://www.w3.org/2000/svg"
 width="512.000000pt" height="512.000000pt" viewBox="0 0 512.000000 512.000000"
 preserveAspectRatio="xMidYMid meet">

<g transform="translate(0.000000,512.000000) scale(0.100000,-0.100000)"
fill="#000000" stroke="none">
<path d="M1415 5108 c-45 -24 -45 -23 -45 -419 l0 -378 26 -20 c26 -21 35 -21
595 -21 l569 0 0 -1025 0 -1025 -84 0 -85 0 -3 337 -3 338 -26 56 c-48 103
-139 178 -234 194 -82 14 -75 -3 -75 186 l0 169 68 0 c109 0 197 52 245 145
28 55 35 191 14 266 -21 71 -72 130 -139 160 l-53 24 -533 3 -534 3 -190 -47
c-253 -62 -242 -52 -246 -231 -4 -166 5 -207 51 -228 56 -26 354 -95 407 -95
l50 0 0 -73 0 -73 -76 -74 c-90 -89 -99 -108 -79 -156 16 -38 55 -59 94 -49
14 4 69 50 123 103 110 108 118 124 118 245 l0 77 85 0 85 0 0 -170 0 -169
-37 -6 c-110 -19 -194 -70 -246 -149 -52 -78 -58 -108 -64 -283 l-6 -163 -564
0 -565 0 -29 -29 -29 -29 0 -1051 0 -1050 24 -28 24 -28 400 -3 400 -3 4 -145
c3 -145 3 -146 31 -170 l28 -24 2075 0 2076 0 29 29 29 29 0 1051 0 1050 -23
27 c-20 23 -34 28 -84 32 l-61 4 -4 107 c-4 83 -10 119 -30 169 l-26 62 25 61
c106 263 -57 565 -331 612 l-66 11 0 241 c0 231 -1 242 -24 291 -28 59 -94
119 -150 136 -23 7 -97 13 -171 12 -115 0 -136 -2 -183 -23 -30 -14 -68 -41
-87 -64 -59 -68 -65 -103 -65 -362 l0 -231 -66 -11 c-184 -32 -328 -182 -354
-371 -12 -86 0 -180 32 -254 l20 -48 -20 -48 c-25 -57 -42 -154 -42 -234 l0
-58 -85 0 -85 0 2 1023 3 1022 571 3 571 2 24 26 24 26 0 375 0 375 -28 24
-28 24 -1472 0 c-1046 -1 -1478 -4 -1492 -12z m2855 -243 l0 -85 -1365 0
-1365 0 0 85 0 85 1365 0 1365 0 0 -85z m0 -340 l0 -85 -1365 0 -1365 0 0 85
0 85 1365 0 1365 0 0 -85z m-1200 -425 l0 -170 -170 0 -170 0 0 170 0 170 170
0 170 0 0 -170z m-918 -181 c53 -14 71 -53 66 -137 -4 -55 -8 -68 -32 -88
l-27 -24 -485 0 -484 0 0 123 c0 68 3 127 7 130 11 12 914 8 955 -4z m-1132
-119 c0 -73 -3 -100 -12 -100 -7 0 -44 8 -83 18 l-70 18 -3 61 -3 61 78 20
c43 11 81 20 86 21 4 1 7 -44 7 -99z m2050 -815 l0 -765 -170 0 -170 0 0 765
0 765 170 0 170 0 0 -765z m1255 740 c21 -20 25 -34 25 -85 l0 -60 -170 0
-170 0 0 50 c0 52 20 104 42 113 7 3 66 6 131 6 112 1 119 0 142 -24z m-2445
-395 l0 -170 -85 0 -85 0 0 170 0 170 85 0 85 0 0 -170z m2470 -5 l0 -85 -170
0 -170 0 0 85 0 85 170 0 170 0 0 -85z m251 -270 c62 -21 109 -63 144 -126 26
-47 30 -64 30 -134 0 -73 -3 -86 -40 -157 l-39 -78 39 -77 c35 -70 39 -87 43
-170 l4 -93 -131 0 -131 0 0 160 c0 189 -13 238 -87 320 -162 180 -448 140
-555 -78 -33 -66 -33 -68 -37 -234 l-3 -168 -131 0 -130 0 6 93 c6 79 12 102
42 160 19 37 35 77 35 87 0 10 -16 50 -36 88 -32 61 -36 78 -36 143 0 108 31
172 110 229 20 15 51 32 67 38 19 7 170 11 411 11 316 1 388 -2 425 -14z
m-2517 -75 c54 -12 87 -38 114 -90 21 -43 22 -52 22 -357 l0 -313 -84 0 -85 0
-3 146 c-3 146 -3 146 -31 170 l-28 24 -310 0 -309 0 0 153 c0 138 2 155 21
187 26 41 50 61 99 77 43 14 535 17 594 3z m2186 -362 c70 -48 75 -62 78 -239
l3 -159 -170 0 -171 0 0 143 c0 128 2 147 23 187 31 63 76 90 147 90 43 0 65
-6 90 -22z m-3760 -1168 l0 -940 -170 0 -170 0 0 84 0 84 62 4 c51 4 65 9 85
32 30 36 30 80 -2 111 -20 21 -34 25 -85 25 l-60 0 0 84 0 83 62 6 c51 5 67
10 85 32 28 32 29 75 4 106 -15 19 -32 25 -83 29 l-63 5 0 85 0 85 63 5 c51 4
68 10 83 29 25 31 24 74 -4 106 -18 22 -34 27 -85 32 l-62 6 0 83 0 84 60 0
c51 0 65 4 85 25 32 31 32 75 2 111 -20 23 -34 28 -85 32 l-62 4 0 84 0 84 59
0 c50 0 62 4 85 26 33 33 34 74 3 110 -20 23 -34 28 -85 32 l-62 4 0 84 0 84
170 0 170 0 0 -940z m1370 215 l0 -725 -85 0 -85 0 0 594 c0 408 -3 603 -11
625 -19 54 -46 61 -249 61 -209 0 -232 -6 -249 -68 -7 -24 -11 -314 -11 -839
l0 -803 -255 0 -255 0 0 940 0 940 600 0 600 0 0 -725z m-340 -238 l5 -619 24
-19 c21 -17 41 -19 225 -19 l203 0 24 26 24 26 3 614 2 614 170 0 170 0 0
-469 c0 -539 0 -536 82 -626 105 -115 272 -132 396 -39 l32 25 33 -24 c72 -54
152 -74 232 -57 28 6 56 12 64 13 8 1 18 -17 27 -52 19 -71 59 -129 117 -168
58 -39 104 -53 173 -53 62 0 105 14 162 51 24 16 45 29 47 29 2 0 23 -13 47
-29 63 -41 111 -54 187 -49 63 5 94 17 173 66 26 16 28 16 51 -6 36 -33 119
-62 182 -62 63 0 146 28 182 62 21 20 26 21 46 8 80 -50 112 -63 175 -67 44
-3 81 0 110 10 l42 15 0 -229 0 -229 -1965 0 -1965 0 0 85 0 85 135 0 c160 0
188 9 204 68 7 24 11 314 11 840 l0 803 83 -3 82 -3 5 -618z m1700 156 c0
-438 -1 -470 -19 -496 -27 -42 -57 -59 -105 -59 -48 -1 -79 16 -107 59 -17 26
-19 54 -19 366 0 376 -3 396 -59 415 -36 13 -67 4 -93 -25 -15 -17 -17 -56
-20 -373 -3 -324 -5 -357 -21 -382 -59 -87 -172 -80 -219 13 -16 31 -18 76
-18 492 l0 457 340 0 340 0 0 -467z m1710 -124 c0 -583 0 -592 -21 -626 -51
-82 -159 -83 -217 -2 -15 21 -18 67 -22 387 l-5 364 -24 19 c-32 26 -74 24
-108 -5 l-28 -24 -3 -358 c-3 -341 -4 -358 -23 -386 -26 -36 -68 -58 -114 -58
-26 0 -45 9 -73 34 l-37 34 -5 367 -5 367 -28 24 c-34 29 -76 31 -108 5 l-24
-19 -5 -359 c-5 -328 -7 -361 -24 -389 -51 -84 -166 -84 -216 -1 -19 30 -20
52 -20 375 0 350 -2 371 -39 399 -21 16 -71 16 -92 0 -37 -28 -39 -49 -39
-398 0 -329 -1 -343 -21 -376 -51 -82 -159 -83 -217 -2 -15 22 -17 79 -20 622
l-3 597 771 0 770 0 0 -591z"/>
</g>
</svg>
