<?xml version="1.0" standalone="no"?>
<!DOCTYPE svg PUBLIC "-//W3C//DTD SVG 20010904//EN"
 "http://www.w3.org/TR/2001/REC-SVG-20010904/DTD/svg10.dtd">
<svg version="1.0" xmlns="http://www.w3.org/2000/svg"
 width="512.000000pt" height="512.000000pt" viewBox="0 0 512.000000 512.000000"
 preserveAspectRatio="xMidYMid meet">

<g transform="translate(0.000000,512.000000) scale(0.100000,-0.100000)"
fill="#000000" stroke="none">
<path d="M890 4946 c-425 -89 -744 -392 -857 -814 -23 -86 -26 -116 -26 -267
0 -151 3 -181 26 -267 100 -376 365 -660 725 -777 48 -16 106 -32 130 -36 25
-4 42 -12 42 -20 0 -8 9 -85 20 -172 108 -849 353 -1481 747 -1930 180 -204
466 -398 705 -477 99 -33 207 -35 304 -5 251 77 544 281 746 519 380 445 623
1096 723 1935 17 137 23 155 56 155 9 0 56 11 105 26 282 81 532 292 668 561
215 429 123 947 -227 1280 -339 322 -831 394 -1253 182 -217 -109 -408 -313
-506 -541 -59 -136 -79 -230 -85 -398 -6 -171 15 -295 72 -438 19 -47 32 -88
29 -91 -9 -9 -713 -14 -839 -6 l-113 7 28 61 c62 139 97 342 85 497 -21 293
-131 528 -340 729 -141 134 -294 220 -483 272 -100 27 -382 36 -482 15z m473
-180 c321 -96 559 -341 644 -663 22 -83 26 -119 26 -238 0 -119 -4 -155 -26
-237 -85 -322 -324 -569 -644 -664 -106 -32 -322 -44 -426 -25 -568 108 -903
666 -730 1216 100 318 360 552 703 631 36 9 108 12 210 10 133 -3 168 -7 243
-30z m2912 -1 c333 -97 577 -352 662 -691 23 -95 23 -323 0 -418 -85 -340
-328 -594 -662 -691 -128 -38 -304 -45 -435 -17 -350 72 -621 327 -722 678
-19 67 -23 102 -23 239 0 137 4 172 23 239 103 357 379 612 737 682 112 22
309 12 420 -21z m-1725 -1560 c261 0 500 3 531 7 l55 8 55 -66 c177 -214 463
-360 747 -380 l93 -7 -6 -41 c-30 -234 -50 -372 -71 -481 -171 -886 -534
-1505 -1058 -1804 -215 -122 -337 -147 -471 -96 -328 124 -631 393 -849 755
-193 318 -342 748 -425 1225 -26 149 -61 426 -56 435 2 4 48 10 102 13 281 18
543 154 742 384 54 62 55 63 95 55 23 -4 255 -7 516 -7z"/>
<path d="M775 4466 c-27 -13 -62 -36 -77 -52 -58 -62 -58 -63 -58 -551 0 -414
2 -451 19 -489 24 -52 90 -108 147 -124 74 -21 124 -7 258 69 420 241 620 360
646 385 60 56 83 142 60 225 -21 79 -68 114 -445 332 -192 111 -367 208 -389
215 -56 20 -104 17 -161 -10z m470 -345 c381 -220 393 -229 368 -284 -13 -27
-717 -437 -751 -437 -12 0 -31 9 -42 20 -19 19 -20 33 -20 445 0 424 0 424 22
445 12 11 31 20 42 20 12 0 183 -94 381 -209z"/>
<path d="M4170 4430 c-184 -33 -336 -59 -337 -59 -1 -1 -11 -11 -23 -23 -19
-21 -20 -34 -20 -314 l0 -291 -70 5 c-161 11 -280 -96 -280 -254 0 -227 280
-338 436 -172 67 70 69 79 72 346 2 133 4 242 6 242 1 0 108 18 239 40 130 22
241 40 247 40 6 0 10 -28 10 -68 l0 -69 -73 5 c-60 4 -82 0 -125 -18 -162 -70
-203 -283 -80 -409 54 -55 104 -76 183 -75 102 0 179 47 228 139 21 39 22 51
25 480 2 242 0 450 -3 462 -6 24 -52 54 -82 52 -10 0 -169 -27 -353 -59z m280
-198 l0 -78 -232 -37 c-128 -21 -241 -41 -250 -43 -16 -5 -18 3 -18 75 0 45 3
81 8 82 4 0 104 17 222 38 118 21 227 39 243 40 l27 1 0 -78z m-29 -561 c32
-33 37 -67 14 -110 -43 -85 -175 -49 -175 47 0 86 99 125 161 63z m-660 -110
c66 -67 3 -177 -90 -156 -106 23 -84 185 24 185 27 0 44 -8 66 -29z"/>
<path d="M1833 2506 c-59 -19 -104 -49 -152 -101 -49 -53 -54 -93 -16 -130 36
-37 76 -33 117 11 63 68 162 93 231 58 18 -9 51 -34 74 -55 48 -44 78 -49 117
-18 20 16 26 29 26 59 0 32 -8 46 -45 85 -63 64 -140 98 -235 102 -45 2 -92
-3 -117 -11z"/>
<path d="M3073 2502 c-148 -53 -230 -174 -157 -231 39 -31 69 -26 117 18 23
21 56 46 74 55 69 35 168 10 231 -58 24 -26 42 -36 63 -36 40 0 79 40 79 80 0
42 -75 121 -147 157 -73 35 -185 42 -260 15z"/>
<path d="M1872 1587 c-47 -50 -21 -109 99 -223 107 -101 192 -151 339 -200 79
-26 97 -28 245 -28 177 -1 228 9 363 70 101 46 185 108 275 204 69 73 77 86
77 120 0 49 -30 80 -76 80 -33 0 -35 -1 -120 -98 -77 -89 -215 -170 -342 -203
-250 -64 -537 26 -699 218 -26 32 -55 63 -63 70 -25 21 -74 15 -98 -10z"/>
</g>
</svg>
