<?xml version="1.0" standalone="no"?>
<!DOCTYPE svg PUBLIC "-//W3C//DTD SVG 20010904//EN"
 "http://www.w3.org/TR/2001/REC-SVG-20010904/DTD/svg10.dtd">
<svg version="1.0" xmlns="http://www.w3.org/2000/svg"
 width="512.000000pt" height="512.000000pt" viewBox="0 0 512.000000 512.000000"
 preserveAspectRatio="xMidYMid meet">

<g transform="translate(0.000000,512.000000) scale(0.100000,-0.100000)"
fill="#000000" stroke="none">
<path d="M1655 5011 c-108 -39 -199 -121 -251 -226 l-29 -60 0 -885 0 -885 27
-58 c38 -81 126 -170 207 -210 l66 -32 885 0 885 0 58 27 c80 38 167 123 208
206 l34 67 3 544 c2 510 2 545 -15 563 -27 30 -58 39 -94 26 -58 -20 -59 -25
-59 -569 0 -357 -3 -503 -12 -533 -16 -55 -99 -138 -154 -154 -59 -17 -1649
-17 -1708 0 -55 16 -138 99 -154 154 -17 59 -17 1649 0 1708 16 55 99 138 154
154 58 17 1649 17 1706 0 49 -15 120 -76 144 -125 16 -32 20 -69 24 -220 5
-175 6 -182 29 -207 33 -35 88 -36 120 -2 22 23 22 28 19 227 l-3 204 -34 67
c-41 83 -128 168 -208 206 l-58 27 -870 2 c-820 2 -873 1 -920 -16z"/>
<path d="M1989 4490 l-30 -29 3 -287 3 -286 28 -24 c37 -31 81 -31 112 1 25
24 25 25 25 225 0 126 4 200 10 200 13 0 900 -443 900 -450 0 -3 -205 -107
-455 -233 l-455 -227 0 120 c0 106 -2 122 -20 140 -28 28 -69 36 -99 19 -46
-26 -51 -50 -51 -251 0 -186 0 -187 26 -217 18 -22 35 -31 55 -31 18 0 261
116 648 309 559 280 619 312 631 340 10 25 10 37 0 62 -12 28 -72 60 -631 340
-341 170 -631 309 -645 309 -15 0 -38 -12 -55 -30z"/>
<path d="M979 2725 c-30 -16 -52 -66 -42 -93 15 -38 544 -822 562 -832 33 -17
61 -11 92 19 18 19 29 40 29 58 0 34 -526 830 -562 850 -30 16 -47 16 -79 -2z"/>
<path d="M3980 2728 c-28 -14 -541 -770 -560 -826 -23 -65 45 -129 109 -102
38 15 571 811 571 852 0 33 -36 75 -70 83 -14 3 -36 0 -50 -7z"/>
<path d="M1843 2470 c-12 -5 -30 -21 -39 -36 -18 -26 -17 -33 30 -271 44 -218
51 -246 74 -263 35 -28 87 -26 117 5 14 13 25 32 25 42 0 10 -21 122 -46 248
-36 184 -50 234 -67 252 -26 26 -64 35 -94 23z"/>
<path d="M3113 2461 c-17 -11 -34 -28 -36 -38 -15 -51 -89 -442 -89 -467 1
-41 38 -76 79 -76 45 0 68 13 82 47 16 40 91 420 91 463 0 67 -69 106 -127 71z"/>
<path d="M2517 2379 c-42 -25 -47 -63 -47 -374 0 -236 3 -303 15 -330 28 -68
115 -70 147 -5 16 31 18 69 18 333 0 316 -5 353 -48 376 -26 14 -62 14 -85 0z"/>
<path d="M706 2099 c-53 -62 -38 -83 182 -247 158 -119 195 -142 224 -142 45
0 78 34 78 81 0 19 -6 42 -12 51 -7 9 -95 77 -196 152 -207 154 -228 162 -276
105z"/>
<path d="M4138 1994 c-101 -75 -189 -143 -195 -152 -22 -27 -16 -86 10 -110
48 -45 73 -34 279 120 220 164 235 185 182 247 -48 57 -69 49 -276 -105z"/>
<path d="M1730 1609 c-83 -14 -1412 -330 -1432 -340 -34 -18 -38 -46 -38 -267
l0 -219 -61 -7 c-34 -3 -80 -6 -101 -6 -30 0 -46 -7 -69 -29 l-29 -29 0 -202
c0 -200 0 -201 25 -225 19 -20 34 -25 75 -25 52 0 1888 124 1990 135 l56 5 28
-62 c36 -78 120 -164 197 -202 227 -110 502 0 589 237 10 27 11 28 67 22 105
-11 1940 -135 1992 -135 42 0 57 5 76 25 32 31 32 75 2 111 -27 31 22 26 -752
79 -209 14 -506 34 -660 45 -789 55 -810 55 -839 37 -14 -10 -28 -30 -32 -45
-31 -149 -125 -235 -258 -234 -120 0 -208 69 -249 197 -16 52 -29 73 -49 84
-24 14 -122 9 -1020 -52 -546 -37 -1010 -70 -1030 -73 l-38 -6 0 86 0 85 33 5
c17 3 106 10 197 16 91 5 293 19 450 30 721 49 921 63 1290 90 l395 28 1258
-86 c1402 -96 1302 -95 1321 -20 11 42 -9 82 -47 98 -17 8 -2309 170 -2394
170 l-23 0 0 195 0 196 65 29 c174 78 314 105 517 98 143 -5 144 -6 778 -157
349 -84 645 -154 656 -157 18 -5 22 -15 26 -65 3 -44 10 -65 28 -84 32 -34 82
-34 115 0 23 23 25 31 25 130 0 109 -7 137 -39 154 -23 13 -1352 326 -1441
340 -96 16 -314 13 -416 -4 -105 -19 -241 -63 -334 -109 l-68 -33 -68 33 c-94
45 -232 90 -339 108 -99 17 -333 20 -425 5z m410 -175 c85 -16 228 -63 293
-95 l37 -19 0 -195 c0 -182 -1 -195 -18 -195 -26 0 -1894 -128 -1964 -134
l-58 -6 0 169 0 169 108 25 c59 14 352 84 652 156 300 71 559 132 575 134 79
11 298 6 375 -9z"/>
</g>
</svg>
