<?xml version="1.0" standalone="no"?>
<!DOCTYPE svg PUBLIC "-//W3C//DTD SVG 20010904//EN"
 "http://www.w3.org/TR/2001/REC-SVG-20010904/DTD/svg10.dtd">
<svg version="1.0" xmlns="http://www.w3.org/2000/svg"
 width="512.000000pt" height="512.000000pt" viewBox="0 0 512.000000 512.000000"
 preserveAspectRatio="xMidYMid meet">
<metadata>
Created by potrace 1.16, written by Peter Selinger 2001-2019
</metadata>
<g transform="translate(0.000000,512.000000) scale(0.100000,-0.100000)"
fill="#000000" stroke="none">
<path d="M1863 5096 l-28 -24 -5 -369 -5 -368 -70 -8 c-425 -46 -830 -347
-1017 -754 l-43 -93 -130 0 c-244 0 -239 6 -243 -310 -4 -274 0 -309 35 -344
25 -25 30 -26 139 -26 l114 0 0 -555 0 -555 -82 0 c-102 0 -151 -13 -178 -47
-19 -24 -20 -39 -20 -229 l0 -204 -139 0 c-136 0 -139 0 -165 -26 l-26 -27 0
-282 0 -282 26 -27 27 -26 1153 0 1154 0 0 -214 c0 -243 3 -266 38 -301 l25
-25 1322 0 1322 0 27 26 26 27 0 389 c0 366 -1 392 -21 450 -49 146 -153 251
-303 305 -23 8 -170 32 -327 53 -295 39 -335 50 -365 95 -15 24 -14 25 58 97
55 54 84 93 111 148 34 70 67 173 67 211 0 9 16 43 35 75 68 112 105 245 105
377 1 323 -200 603 -505 704 -70 23 -97 27 -215 27 -74 1 -154 -3 -177 -7
l-43 -9 0 225 0 224 -25 25 c-33 33 -61 38 -214 38 l-127 0 -28 67 c-61 148
-157 287 -291 419 -189 187 -447 317 -699 355 -125 18 -116 13 -116 69 l0 50
301 0 301 0 29 29 29 29 0 282 0 282 -29 29 -29 29 -376 0 -375 0 -28 -24z
m627 -311 l0 -135 -225 0 -225 0 0 135 0 135 225 0 225 0 0 -135z m-288 -689
c259 -66 489 -224 637 -436 47 -67 101 -160 101 -175 0 -3 -452 -5 -1005 -5
-553 0 -1005 3 -1005 6 0 12 64 119 108 182 164 232 448 406 738 452 104 16
317 5 426 -24z m1128 -956 l0 -130 -1400 0 -1400 0 0 130 0 130 1400 0 1400 0
0 -130z m-2110 -895 l0 -555 -200 0 -200 0 0 555 0 555 200 0 200 0 0 -555z
m610 0 l0 -555 -200 0 -200 0 0 555 0 555 200 0 200 0 0 -555z m610 0 l0 -555
-200 0 -200 0 0 555 0 555 200 0 200 0 0 -555z m600 392 c0 -105 -5 -187 -15
-232 -19 -89 -19 -211 0 -300 10 -46 15 -128 15 -242 l0 -173 -195 0 -195 0 0
555 0 555 195 0 195 0 0 -163z m851 123 c240 -74 395 -299 376 -547 -3 -42
-10 -80 -14 -84 -5 -5 -37 33 -76 89 -102 152 -56 137 -432 137 -375 0 -329
14 -432 -132 -37 -51 -69 -93 -73 -93 -10 0 -20 64 -20 130 0 227 152 427 380
501 77 25 209 25 291 -1z m157 -730 c78 -114 82 -122 82 -175 0 -99 -64 -228
-145 -289 -19 -15 -61 -39 -93 -54 -48 -23 -71 -27 -147 -27 -81 0 -97 3 -158
32 -133 63 -216 183 -225 324 l-4 77 83 116 83 116 221 0 221 0 82 -120z
m-704 -604 l58 -53 -17 -27 c-10 -15 -32 -34 -48 -43 -18 -9 -149 -31 -321
-54 l-290 -39 -1093 0 -1093 0 0 135 0 135 1373 0 1372 -1 59 -53z m361 -153
c44 -3 105 -1 135 5 30 6 57 8 59 6 3 -3 -31 -40 -74 -84 l-80 -80 -77 77
c-77 77 -94 101 -60 88 9 -3 53 -9 97 -12z m-80 -347 c-14 -39 -115 -487 -115
-507 0 -18 26 -49 102 -121 l103 -97 -572 -1 -573 0 0 264 c0 145 5 288 10
317 19 100 101 195 188 218 20 6 160 26 311 46 154 20 294 44 320 54 l46 18
92 -90 c50 -49 90 -95 88 -101z m785 120 c151 -20 296 -44 321 -52 64 -20 123
-74 156 -142 l28 -57 3 -298 4 -297 -574 0 -573 1 103 97 c78 74 102 103 102
122 0 14 -27 135 -59 270 l-58 245 89 91 90 91 46 -17 c26 -10 171 -34 322
-54z m-1970 -45 c0 -6 -4 -12 -9 -15 -16 -10 -54 -126 -60 -184 l-6 -57 -1082
-3 -1083 -2 0 135 0 135 1120 0 c693 0 1120 -4 1120 -9z"/>
</g>
</svg>
