<?xml version="1.0" standalone="no"?>
<!DOCTYPE svg PUBLIC "-//W3C//DTD SVG 20010904//EN"
 "http://www.w3.org/TR/2001/REC-SVG-20010904/DTD/svg10.dtd">
<svg version="1.0" xmlns="http://www.w3.org/2000/svg"
 width="512.000000pt" height="512.000000pt" viewBox="0 0 512.000000 512.000000"
 preserveAspectRatio="xMidYMid meet">
<metadata>
Created by potrace 1.16, written by Peter Selinger 2001-2019
</metadata>
<g transform="translate(0.000000,512.000000) scale(0.100000,-0.100000)"
fill="#000000" stroke="none">
<path d="M1782 4785 c-235 -43 -455 -159 -632 -335 -137 -136 -226 -275 -288
-452 -61 -170 -65 -208 -72 -638 -7 -430 -10 -448 -71 -579 -16 -35 -50 -93
-75 -128 -56 -78 -126 -225 -149 -313 -12 -45 -19 -120 -22 -244 l-5 -179 -46
-56 c-25 -31 -57 -80 -71 -111 l-26 -55 -3 -667 c-3 -659 -2 -668 18 -688 20
-20 28 -20 1260 -20 l1239 0 21 22 c12 14 20 35 20 58 0 23 -8 44 -20 58 -21
22 -23 22 -395 22 l-375 0 0 448 0 447 141 120 c78 66 152 133 165 148 48 57
16 137 -55 137 -43 0 -48 -4 -201 -134 -58 -49 -112 -96 -121 -103 -15 -12
-51 16 -308 236 l-292 250 53 15 c29 8 84 23 121 32 97 24 107 39 107 169 l0
103 63 -20 c122 -40 387 -35 510 8 l37 13 0 -108 c0 -99 2 -109 23 -128 35
-34 169 -63 211 -47 8 3 40 43 71 88 139 208 361 388 585 476 105 41 119 75
76 178 -48 114 -49 122 -56 532 -6 305 -11 414 -24 478 -100 493 -472 868
-959 963 -116 23 -341 25 -455 4z m440 -175 c374 -80 675 -362 783 -736 31
-109 32 -118 3 -109 -13 3 -89 10 -170 15 -304 18 -468 89 -695 304 -135 127
-140 127 -261 15 -229 -214 -473 -319 -737 -319 -45 0 -102 -6 -127 -14 l-46
-13 14 61 c46 200 126 346 274 499 252 263 608 372 962 297z m-167 -681 c151
-155 410 -284 618 -306 l59 -6 -4 -286 c-5 -319 -8 -334 -86 -486 -53 -102
-191 -237 -299 -293 -240 -124 -526 -109 -742 38 -177 120 -294 310 -321 521
-5 46 -10 178 -10 294 l0 211 81 12 c192 31 401 132 583 284 38 32 71 58 75
58 4 0 25 -18 46 -41z m-955 -459 c0 -130 -1 -140 -19 -140 -29 0 -84 42 -104
80 -34 65 -4 149 65 183 58 29 58 30 58 -123z m1870 119 c68 -39 92 -118 56
-187 -19 -37 -70 -72 -103 -72 -23 0 -23 1 -23 140 0 157 0 158 70 119z
m-1910 -428 l45 -6 7 -65 c14 -146 82 -319 172 -437 51 -67 148 -161 208 -200
l39 -26 -3 -96 -3 -95 -440 -117 -440 -116 -3 96 c-5 168 32 283 146 458 119
184 160 306 169 505 l6 126 26 -10 c14 -5 46 -13 71 -17z m2014 -291 c8 -30
18 -64 21 -75 4 -17 -6 -26 -67 -55 -168 -80 -362 -238 -490 -398 l-58 -73 0
79 0 79 69 52 c169 126 291 319 335 533 9 42 16 93 16 113 0 34 1 35 38 36 20
0 53 6 72 13 l35 13 6 -131 c4 -72 14 -156 23 -186z m-1154 -1942 l0 -448
-355 0 -355 0 0 219 c0 247 -3 256 -72 268 -32 5 -41 1 -68 -25 l-30 -30 0
-216 0 -216 -281 0 -280 0 3 573 3 572 24 53 c32 71 107 137 178 158 30 9 161
44 291 78 l236 62 353 -300 352 -301 1 -447z"/>
<path d="M3475 2556 c-113 -22 -208 -53 -304 -102 -288 -144 -504 -409 -589
-722 -24 -89 -26 -113 -26 -287 0 -174 2 -198 26 -287 50 -185 144 -352 275
-488 104 -109 186 -170 318 -235 159 -79 266 -105 446 -112 226 -9 379 22 554
110 117 58 189 110 288 206 175 171 290 388 327 623 20 124 8 360 -24 478 -32
116 -118 292 -185 381 -63 83 -189 203 -271 259 -92 63 -236 127 -347 157
-121 31 -372 41 -488 19z m361 -167 c388 -68 696 -368 780 -759 19 -88 18
-282 -2 -378 -76 -370 -377 -670 -748 -747 -102 -21 -280 -21 -382 0 -311 64
-581 291 -698 587 -53 136 -61 181 -60 358 0 150 3 173 28 254 108 354 377
602 737 681 77 16 263 19 345 4z"/>
<path d="M3495 2285 c-337 -76 -590 -330 -661 -665 -18 -88 -18 -263 2 -358
54 -261 239 -489 489 -603 212 -96 495 -94 710 5 185 85 335 236 420 420 103
222 103 500 0 722 -112 243 -339 425 -597 478 -94 19 -279 20 -363 1z m347
-174 c395 -101 618 -519 479 -899 -80 -220 -264 -385 -489 -438 -88 -21 -230
-21 -312 0 -315 80 -530 352 -530 671 0 313 210 586 514 665 97 26 240 26 338
1z"/>
<path d="M3634 2048 c-28 -13 -44 -49 -44 -98 0 -35 -3 -39 -32 -45 -136 -30
-248 -161 -235 -275 12 -98 69 -168 181 -221 34 -16 67 -29 74 -29 9 0 12 -29
12 -110 l0 -111 -30 16 c-16 8 -52 36 -80 60 -39 34 -59 45 -84 45 -47 0 -76
-27 -83 -77 -5 -41 -4 -44 52 -98 53 -50 179 -125 211 -125 10 0 14 -14 14
-50 0 -65 30 -100 85 -100 53 0 85 36 85 94 0 42 2 45 33 51 51 12 123 52 163
91 77 78 95 178 48 272 -32 64 -76 102 -171 144 l-73 33 0 108 c0 59 4 107 9
107 5 0 43 -22 84 -50 89 -60 133 -66 166 -24 30 38 27 77 -10 118 -38 44
-126 98 -196 121 l-53 17 0 49 c0 40 -5 55 -25 74 -26 26 -64 31 -101 13z"/>
</g>
</svg>
