<?xml version="1.0" standalone="no"?>
<!DOCTYPE svg PUBLIC "-//W3C//DTD SVG 20010904//EN"
 "http://www.w3.org/TR/2001/REC-SVG-20010904/DTD/svg10.dtd">
<svg version="1.0" xmlns="http://www.w3.org/2000/svg"
 width="512.000000pt" height="512.000000pt" viewBox="0 0 512.000000 512.000000"
 preserveAspectRatio="xMidYMid meet">

<g transform="translate(0.000000,512.000000) scale(0.100000,-0.100000)"
fill="#000000" stroke="none">
<path d="M1208 4186 c-123 -33 -248 -185 -321 -388 -6 -16 -9 -16 -41 -3 -49
21 -363 21 -430 1 -62 -19 -109 -56 -143 -114 -24 -40 -28 -58 -28 -123 0 -67
4 -81 30 -124 44 -72 94 -103 195 -121 47 -9 95 -18 108 -20 l23 -5 -30 -43
c-64 -93 -66 -104 -66 -407 l0 -276 38 -74 37 -74 0 -134 c0 -77 5 -151 12
-175 16 -53 84 -121 134 -135 23 -6 141 -11 285 -11 245 0 245 0 298 26 73 37
104 86 109 173 4 58 1 69 -18 86 -27 24 -83 25 -109 1 -11 -10 -23 -37 -26
-59 -4 -23 -12 -48 -17 -54 -8 -10 -69 -13 -243 -13 -278 0 -265 -6 -265 118
l0 82 33 -8 c17 -4 171 -7 340 -7 l309 0 25 29 c29 35 26 80 -8 108 -19 16
-50 18 -313 18 -174 0 -306 4 -329 11 -54 15 -114 72 -127 121 -7 24 -10 129
-8 273 l3 234 63 90 c72 104 81 134 57 184 -22 48 -57 62 -205 83 -110 16
-128 21 -153 45 -34 35 -36 78 -3 116 l24 28 160 3 159 3 31 -53 c58 -104 172
-199 286 -238 56 -19 83 -20 516 -20 421 0 459 1 479 18 34 28 37 73 8 108
l-25 29 -464 5 c-499 5 -467 2 -556 63 -36 24 -43 33 -37 51 3 11 13 50 22 86
32 137 133 294 210 326 26 11 171 14 784 14 674 0 755 -2 785 -16 81 -39 177
-190 208 -329 11 -52 22 -76 42 -93 50 -44 124 -7 124 62 0 46 -37 171 -71
243 -35 74 -114 175 -172 221 -89 72 -27 67 -897 69 -608 2 -795 -1 -832 -11z"/>
<path d="M2370 3261 c-89 -48 -206 -189 -245 -297 l-17 -49 -222 0 -221 0 -43
-29 c-93 -63 -127 -186 -79 -289 40 -89 104 -126 240 -142 55 -7 69 -16 46
-31 -6 -3 -24 -34 -40 -68 l-29 -61 0 -246 c0 -257 3 -282 46 -350 20 -32 23
-51 26 -182 3 -143 3 -146 33 -188 17 -23 50 -53 75 -66 44 -24 48 -24 291
-21 l246 3 42 28 c80 53 117 182 66 232 -50 51 -135 17 -135 -54 0 -15 -5 -32
-12 -39 -17 -17 -419 -17 -436 0 -7 7 -12 40 -12 77 l0 66 1150 0 1150 0 0
-66 c0 -37 -5 -70 -12 -77 -17 -17 -419 -17 -436 0 -7 7 -12 24 -12 39 0 72
-85 105 -137 53 -22 -22 -25 -32 -21 -74 7 -65 37 -119 87 -155 l43 -30 246
-3 c244 -3 248 -3 292 21 25 13 59 43 75 66 30 42 30 45 33 188 3 131 6 150
26 182 43 68 46 93 46 350 l0 246 -29 61 c-16 34 -34 65 -40 68 -23 15 -9 24
47 31 88 10 125 22 171 56 129 93 117 299 -22 379 l-52 31 -211 -3 -212 -3
-17 49 c-40 110 -157 251 -247 297 -36 18 -70 19 -770 19 -694 -1 -735 -2
-768 -19z m1531 -200 c80 -82 108 -141 151 -320 4 -18 -80 -77 -130 -91 -51
-14 -1513 -14 -1564 0 -50 14 -134 73 -130 91 44 180 79 255 158 329 l53 50
702 0 703 0 57 -59z m-1876 -338 c28 -53 131 -153 191 -185 109 -59 100 -58
924 -58 824 0 815 -1 924 58 60 32 163 132 191 185 l20 37 147 0 c140 0 148
-1 162 -22 22 -32 20 -65 -7 -92 -18 -18 -46 -26 -147 -41 -116 -17 -127 -20
-157 -51 -51 -50 -46 -85 25 -186 l57 -83 3 -230 c3 -265 -1 -281 -78 -322
l-43 -23 -1095 0 c-1088 0 -1096 0 -1138 21 -24 11 -53 35 -64 54 -20 32 -21
45 -18 267 l3 233 58 83 c70 101 75 136 24 187 -30 30 -41 34 -157 51 -101 15
-129 23 -147 41 -27 26 -29 59 -7 91 14 21 22 22 162 22 l147 0 20 -37z"/>
<path d="M2025 2369 c-31 -18 -45 -40 -45 -75 0 -25 15 -48 74 -114 41 -46 85
-89 98 -96 16 -10 75 -13 204 -14 169 0 183 1 208 21 35 28 36 80 1 114 -24
24 -28 25 -182 25 l-158 0 -65 70 c-67 72 -100 88 -135 69z"/>
<path d="M4194 2370 c-12 -4 -47 -38 -79 -74 l-59 -66 -158 0 c-155 0 -159 -1
-183 -25 -35 -34 -34 -86 1 -114 25 -20 39 -21 208 -21 129 1 188 4 204 14 13
7 57 50 98 96 54 61 74 90 74 111 0 41 -9 58 -41 74 -32 17 -36 17 -65 5z"/>
<path d="M2502 1953 c-21 -8 -43 -61 -36 -88 3 -14 18 -34 31 -45 25 -19 42
-20 643 -20 601 0 618 1 643 20 13 11 28 31 31 45 7 29 -15 79 -39 89 -20 7
-1254 7 -1273 -1z"/>
<path d="M773 3178 c-27 -31 -34 -54 -24 -81 11 -29 153 -187 183 -203 17 -10
79 -13 224 -14 225 0 238 3 250 67 5 27 1 37 -24 63 l-30 30 -173 0 -173 0
-76 80 c-62 66 -80 80 -106 80 -19 0 -38 -8 -51 -22z"/>
</g>
</svg>
